<?xml version="1.0" encoding="utf-8"?>
<!-- Generator: Adobe Illustrator 16.2.1, SVG Export Plug-In . SVG Version: 6.00 Build 0)  -->
<!DOCTYPE svg PUBLIC "-//W3C//DTD SVG 1.1//EN" "http://www.w3.org/Graphics/SVG/1.1/DTD/svg11.dtd">
<svg version="1.1" id="Layer_1" xmlns="http://www.w3.org/2000/svg" xmlns:xlink="http://www.w3.org/1999/xlink" x="0px" y="0px"
	 viewBox="0 0 1200 778.5" enable-background="new 0 0 1200 778.5" xml:space="preserve">
<path fill="#94001A" d="M239.76,298.701L0,538.461l239.76,239.762v-179.82c122.478,0,216.114-29.229,286.262-89.355
	c4.916-4.214,9.633-8.521,14.2-12.899c-25.773-35.743-45.626-72.6-63.475-107.79c-45.255,54.697-110.563,90.166-236.987,90.166
	V298.701z"/>
<path fill="#009191" d="M959.841,299.499V479.32c-202.715,0-248.308-91.185-306.028-206.626
	c-32.129-64.261-65.353-130.707-126.989-183.538C456.674,29.028,363.036-0.2,240.56-0.2v119.88
	c202.715,0,248.307,91.184,306.027,206.626c32.13,64.261,65.354,130.707,126.991,183.538
	c70.148,60.128,163.788,89.355,286.263,89.355v179.82l239.76-239.762L959.841,299.499z"/>
<path fill="#94001A" d="M959.041,118.88V-1C836.564-1,742.93,28.229,672.78,88.356c-4.917,4.212-9.632,8.522-14.2,12.902
	c25.773,35.741,45.627,72.599,63.473,107.789C767.309,154.35,832.616,118.88,959.041,118.88z"/>
</svg>
