<?xml version="1.0" encoding="utf-8"?>
<!-- Generator: Adobe Illustrator 16.2.1, SVG Export Plug-In . SVG Version: 6.00 Build 0)  -->
<!DOCTYPE svg PUBLIC "-//W3C//DTD SVG 1.1//EN" "http://www.w3.org/Graphics/SVG/1.1/DTD/svg11.dtd">
<svg version="1.1" id="Layer_1" xmlns="http://www.w3.org/2000/svg" xmlns:xlink="http://www.w3.org/1999/xlink" x="0px" y="0px"
	 viewBox="0 0 500 500" enable-background="new 0 0 500 500" xml:space="preserve">
<path fill="#009191" d="M34.178,423.148c10.368-7.705,18.317-20.674,28.495-29.387c10.755-9.207,17.941-21.045,29.474-29.559
	c18.023-13.309,33.804-15.322,55.901-17.75c19.927-2.191,39.857-4.381,59.785-6.57c20.132-2.213,41.389-0.225,61.116-4.615
	c13.098-2.92,23.728-14.25,38.21-12.607c13.285,1.512,41.988,13.115,54.697,18.027c39.22,15.145,108.727,52.082,100.993,100.775
	c-4.156,26.16-73.938,39.086-93.931,39.43c-12.21,0.205-23.744-4.055-35.934-4.121c-16.68-0.088-33.624,2.455-50.178,4.273
	c-8.45,0.932-17.619,9.971-25.797,9.176c-3.559-0.348-11.981-9.639-15.498-10.961c-9.9-3.719-21.761-5.25-32.181-6.547
	c-36.548-4.525-72.898,5.293-109.246,7.266c-15.567,0.967,4.212-28.393-6.12-27.254c-22.777,1.01-27.754,6.574-48.686-2.678
	c-6.309-2.791-20.562-17.844-8.626-22.961"/>
<path fill="#B9896F" stroke="#B9896F" stroke-miterlimit="10" enable-background="new    " d="M331.853,251.638
	c-0.073,0.018-0.131,0.051-0.195,0.086c-0.929,0.384-1.884,0.644-2.858,0.75c-4.054,0.446-7.795-1.652-10.541-5.906
	c-0.03-0.052-0.08-0.082-0.122-0.123c-0.56-8.847-0.821-17.197,1.364-24.593c0.161-0.548-0.154-1.127-0.703-1.289
	c-0.55-0.162-1.129,0.151-1.292,0.702c-2.564,8.681-1.91,18.393-1.223,28.673c1.24,18.457,2.519,37.544-14.286,53.841
	c-4.2,4.072-9.556,10.105-15.226,16.492c-11.123,12.535-23.729,26.736-30.326,29.088c-19.594,6.994-35.172-3.156-47.68-11.311
	c-2.312-1.506-4.495-2.932-6.58-4.166c-2.252-1.33-4.404-2.588-6.457-3.785c-12.436-7.262-21.42-12.51-29.396-20.797
	c-8.169-8.48-12.157-25.916-16.38-44.371c-1.62-7.088-3.094-11.024-4.514-14.829c-1.28-3.433-2.492-6.675-3.837-12.111
	c-0.138-0.558-0.703-0.896-1.258-0.762c-0.556,0.14-0.898,0.702-0.76,1.258c1.371,5.554,2.663,9.005,3.909,12.341
	c1.398,3.744,2.841,7.614,4.431,14.564c1.156,5.054,2.299,10.024,3.515,14.772c-2.874,1.191-5.366,1.266-7.586,0.209
	c-6.349-3.018-9.303-14.514-11.668-23.752c-1.034-4.021-1.927-7.493-2.972-9.765c-1.344-2.924-3.236-5.27-5.069-7.536
	c-2.687-3.33-5.232-6.478-5.74-11.112c-0.165-1.497,0.542-3.891,1.666-4.62c0.31-0.197,0.821-0.399,1.722,0.132l0.986,0.589
	c3.142,1.879,6.699,4.002,10.647,4.341c0.021,0.008,0.038,0.023,0.062,0.031c0.801,0.212,1.563,0.074,2.209-0.403
	c2.255-1.682,2.588-7.364,2.84-15.842c0.122-4.283,0.245-8.33,0.853-10.326c0.979-3.226,3.124-5.92,5.393-8.773
	c3.21-4.031,6.52-8.197,6.609-14.133c0.06-3.98-1.604-8.397-3.212-12.677c-2.099-5.582-4.269-11.353-2.564-15.961
	c7.322-19.8,47.396-51.817,68.437-50.654c5.762,0.321,10.989,2.53,16.525,4.867c4.108,1.735,8.356,3.529,12.871,4.502
	c3.455,0.747,6.872,1.281,10.178,1.801c12.062,1.893,22.48,3.529,30.344,13.876c2.925,3.851,3.56,8.939,4.23,14.328
	c0.586,4.701,1.19,9.562,3.468,13.592c2.45,4.336,6.134,6.507,9.692,8.604c4.207,2.479,8.182,4.821,9.684,10.669
	c1.086,4.225,1.315,8.904,1.541,13.436c0.424,8.591,0.865,17.477,7.059,24.014c0.233,0.243,0.558,0.349,0.867,0.315
	c0.219-0.025,0.432-0.116,0.603-0.278c0.044-0.039,0.062-0.093,0.097-0.141c0.121-0.102,0.221-0.225,0.287-0.378
	c1.035-2.522,7.074-10.865,11.343-13.277c4.495-2.539,8.208-2.973,10.731-1.261c2.985,2.027,4.246,7.069,3.367,13.497
	c-0.464,3.415-2.014,7.005-3.51,10.478c-0.685,1.578-1.386,3.208-1.971,4.784c-1.15,3.119-0.935,6.465-0.723,9.708
	c0.203,3.198,0.398,6.218-0.624,8.985C338.399,246.653,335.378,250.098,331.853,251.638z"/>
<path opacity="0.6" fill="#C6948A" enable-background="new    " d="M271.953,284.104c-2.259-1.814-12.3-1.809-15.333-2.039
	c-4.844-0.369-13.617-3.008-18.675-1.178c-1.396,0.504-3.159,3.615-5.02,3.652c-2.647,0.053-5.958-2.541-8.221-1.703
	c-3.201,1.186-7.804,3.051-13.749,6.006c-4.133,2.051-8.758,3.289-14.053,7.557l-0.105,0.348
	c13.327,3.51,18.892,24.945,34.225,25.256c26.095,0.531,27.84-10.859,35.254-26.984
	C266.802,293.875,272.855,284.826,271.953,284.104z M248.925,303.396c-3.743,3.139-8.146,5.004-13.095,5.549
	c-12.042,1.324-25.285-5.314-34.255-12.381c4.312-1.125,9.111-1.795,12.582-2.178c2.415-0.264,4.822-0.461,7.158-0.582
	c1.272-0.064,2.691-0.055,4.195-0.043c2.316,0.014,4.717,0.029,6.962-0.221c1.362-0.148,2.521-0.379,3.541-0.701
	c6.359-2.014,11.278-2.926,14.87-3.594c1.508-0.279,2.812-0.521,3.971-0.791c3.073-0.719,10.132-2.186,13.775-2.682
	C264.345,290.012,251.491,301.248,248.925,303.396z"/>
<path fill="#F0E7DC" enable-background="new    " d="M248.925,303.396c-3.743,3.139-8.146,5.004-13.095,5.549
	c-12.042,1.324-25.285-5.314-34.255-12.381c4.312-1.125,9.111-1.795,12.582-2.178c2.415-0.264,4.822-0.461,7.158-0.582
	c1.272-0.064,2.691-0.055,4.195-0.043c2.316,0.014,4.717,0.029,6.962-0.221c1.362-0.148,2.521-0.379,3.541-0.701
	c6.359-2.014,11.278-2.926,14.87-3.594c1.508-0.279,2.812-0.521,3.971-0.791c3.073-0.719,10.132-2.186,13.775-2.682
	C264.345,290.012,251.491,301.248,248.925,303.396z"/>
<path fill="#B9896F" stroke="#B9896F" stroke-miterlimit="10" enable-background="new    " d="M314.501,389.229
	c-4.426,14.434-33.429,34.26-58.488,36.037c-21.551,1.525-41.248-5.785-51.889-18.943c-1.279-4.523-2.396-9.012-3.307-13.43
	c-3.351-16.195-8.525-28.58-12.688-38.537c-5.266-12.611-5.785-20.012-1.646-26.695c0.092-0.146,4.314,1.967,8.193,4.23
	c2.053,1.199,4.2,2.453,6.449,3.783c2.047,1.211,4.214,2.621,6.503,4.115c10.81,7.045,23.837,15.539,39.888,13.775
	c3.094-0.338,6.303-1.059,9.627-2.244c7.098-2.533,19.341-16.328,31.179-29.668c5.648-6.355,16.899-16.172,17.568-16.9
	c-0.222,9.035-0.546,16.008,2.714,24.82c0.168,0.457,0.623,0.723,1.089,0.672c0.077-0.01,0.165-0.029,0.245-0.059
	c0.539-0.199,0.813-0.799,0.615-1.332c-2.55-6.893-2.939-10.023-2.914-17.105C326.234,331.748,323.081,361.207,314.501,389.229z"/>
<path fill="#94001A" d="M304.213,25.658c2.213-1.339,4.269-1.768,5.788-1.203c1.657,0.611,1.848,2.046,2.023,4.333
	c0.138,1.817,0.295,3.873,1.885,5.146c0.707,0.571,1.888,0.902,3.252,1.287c1.055,0.297,2.82,0.792,3.102,1.232
	c0.766,1.185,1.148,2.736,1.548,4.38c0.449,1.827,0.915,3.715,1.962,5.339c1.667,2.586,3.223,4.02,4.59,5.284
	c2.084,1.925,3.884,3.587,5.605,9.018c2.459,7.756-2.664,15.107-6.217,17.052c-0.462-0.5-0.917-0.96-1.356-1.396
	c-2.011-2.009-3.604-3.596-4.087-8.006c-0.065-0.592,0.443-2.04,0.893-3.317c0.978-2.788,2.086-5.949,0.236-7.435
	c-0.818-0.654-3.684-3.52-4.529-4.825c-0.301-0.469-0.955-2.668-1.479-4.435c-1.299-4.378-1.955-6.363-2.771-7.017
	c-3.349-2.686-7.877-3.436-12.253-4.163c-2.01-0.333-3.963-0.66-5.71-1.158C297.396,32.099,300.472,27.925,304.213,25.658z"/>
<path fill="#94001A" d="M106.421,80.602c1.556-5.154,2.784-8.276,8.117-7.548c1.999,0.271,4.112,2.932,4.312,6.946
	c-0.62,0.444-1.159,0.913-1.564,1.42c-1.861,2.32-19.12,32.361-19.292,34.816c-0.069,0.977,0.052,6.575,0.278,14.018
	c-7.261-2.356-11.587-5.598-12.863-9.652c-1.354-4.303,0.63-9.824,5.91-16.406c1.187-1.476,1.55-3.133,1.899-4.735
	c0.384-1.765,0.72-3.29,2.089-4.44c0.657-0.546,1.322-1.076,1.99-1.604c2.561-2.024,5.206-4.119,6.994-7.268
	C105.253,84.455,105.846,82.496,106.421,80.602z"/>
<path fill="#F0E7DC" enable-background="new    " d="M256.104,211.463c-0.898,2.522-0.126,3.553,0.589,4.57
	c0.577,0.815,1.372,1.498,2.293,2.046c-3.39,0.206-5.534,0.514-8.958,0.892C251.293,214.679,253.225,212.93,256.104,211.463z"/>
<path fill="#F0E7DC" enable-background="new    " d="M270.044,217.253c1.324-1.299,2.154-3.099,2.346-5.276
	c0.11-1.262-0.18-2.133-0.842-3.3c4.583,0.436,7.777,0.471,11.274,2.683c0.734,0.461,1.308,2.228,1.869,2.756
	C279.612,216.151,275.512,216.667,270.044,217.253z"/>
<path fill="#F0E7DC" enable-background="new    " d="M199.338,227.07c-2.996,0.091-4.865,0.627-7.81,1.258
	c1.072-1.465,2.271-3.265,0.458-7.122C194.916,222.029,197.287,222.922,199.338,227.07z"/>
<path fill="#F0E7DC" enable-background="new    " d="M164.04,232.644c0.543-0.633,1.08-1.273,1.622-1.938
	c1.468-1.794,2.989-3.648,4.857-5.257c1.815-1.556,4.15-1.753,6.386-2.71c-1.223,5.551,1.384,6.957,2.76,7.797
	c0.329,0.2,0.681,0.353,1.034,0.502C174.995,232.475,169.505,233.524,164.04,232.644z"/>
<path d="M269.167,283.611c-3.699,0.406-12.068,1.674-14.895,2.336c-1.107,0.262-2.234,0.404-3.719,0.682
	c-3.645,0.672-8.686,2.176-15.167,4.23c-0.887,0.279-1.915,0.484-3.142,0.619c-2.127,0.234-4.464,0.215-6.723,0.203
	c-1.532-0.01-2.98-0.018-4.312,0.051c-2.375,0.117-4.762-0.139-7.218,0.133c-4.077,0.447-10.032,1.75-14.932,3.248
	c-0.362,0.113-0.634,0.414-0.715,0.791c-0.072,0.371,0.032,0.795,0.353,1c10.356,6.752,24.14,16.352,37.545,14.879
	c5.359-0.59,10.628-3.496,14.69-6.902c0.913-0.764,6.02-6.275,11.141-10.846c10.36-9.242,9.904-8.73,9.898-9.365
	c-0.004-0.309-0.161-0.643-0.405-0.834C271.162,283.508,270.601,283.455,269.167,283.611z M248.925,303.396
	c-3.743,3.139-8.146,5.004-13.095,5.549c-12.042,1.324-25.285-5.314-34.255-12.381c4.312-1.125,9.111-1.795,12.582-2.178
	c2.415-0.264,4.822-0.461,7.158-0.582c1.272-0.064,2.691-0.055,4.195-0.043c2.316,0.014,4.717,0.029,6.962-0.221
	c1.362-0.148,2.521-0.379,3.541-0.701c6.359-2.014,11.278-2.926,14.87-3.594c1.508-0.279,2.812-0.521,3.971-0.791
	c3.073-0.719,10.132-2.186,13.775-2.682C264.345,290.012,251.491,301.248,248.925,303.396z"/>
<path d="M254.047,314.727c-1.991,3.838-6.473,3.891-11.25,4.459c-0.867,0.107-1.77,0.697-2.616,0.822
	c-0.724,0.109-1.408-0.111-2.127,0.006c-5.529,0.881-10.798,2.057-15.623-1.715c-0.451-0.352-1.108-0.271-1.46,0.18
	c-0.352,0.455-0.274,1.105,0.178,1.459c4.233,3.305,8.686,3.531,13.106,3.047c1.369-0.15,2.733-0.369,4.086-0.584
	c0.715-0.115,1.428-0.232,2.141-0.334c0.829-0.121,1.682-0.225,2.529-0.326c5.103-0.609,10.385-1.242,12.88-6.057
	c0.268-0.51,0.065-1.137-0.443-1.402C254.935,314.018,254.309,314.215,254.047,314.727z"/>
<path d="M198.606,258.229c-0.349,2.534,0.852,6.122,2.147,7.757c3.462,4.375,5.465,3.791,8.14,2.709
	c1.857-0.75,2.518-0.778,6.207-0.277c1.598,0.221,4.967-0.695,6.337-0.361c2.526,0.613,4.943,1.201,7.999,0.864
	c0.943-0.103,1.945-0.294,3.032-0.601c2.646-0.742,4.328-2.357,6.235-3.504c1.354-0.812,3.563-0.502,5.97-1.264
	c1.979-0.625,3.256-1.068,4.11-0.848c1.863,0.488,3.361,1.994,7.496-0.416c3.201-1.863,4.713-4.959,4.15-8.494
	c-0.699-4.395-4.444-8.404-8.706-9.324c-0.565-0.122-1.116,0.236-1.234,0.797c-0.122,0.562,0.235,1.112,0.795,1.234
	c3.413,0.737,7.354,3.665,7.917,7.203c0.422,2.679-1.516,5.357-3.969,6.788c-3.012,1.757-4.059,1.046-5.517,0.071
	c-1.317-0.889-2.958-1.99-5.897-1.059c-2.754,0.869-4.596,2.291-6.381,3.662c-1.683,1.292-3.274,2.516-5.531,3.154
	c-4.084,1.146-6.814,0.482-9.979-0.287c-1.42-0.344-2.892-0.703-4.598-0.936c-4.229-0.576-6.938,0.52-8.914,1.318
	c-2.504,1.014-3.532,1.432-6.035-1.721c-0.99-1.254-2.748-4.522-2.488-6.415c0.375-2.757,3.673-5.144,6.207-5.423
	c0.03-0.004,0.057-0.007,0.088-0.009c0.552-0.054,0.993-0.557,0.941-1.128c-0.051-0.57-0.556-0.993-1.129-0.942
	C202.508,251.114,199.11,254.504,198.606,258.229z"/>
<path d="M275.462,278.473c0.092-0.566-0.547-0.998-1.12-0.955c-0.007,0.002-0.019,0.002-0.03,0.004
	c-0.557,0.061-0.967,0.555-0.921,1.115c0.286,3.619,0.716,6.662,1.36,9.578c0.115,0.518,0.604,0.861,1.127,0.805
	c0.035-0.004,0.073-0.01,0.111-0.018c0.558-0.121,1.047-0.727,0.791-1.24C275.638,285.498,274.869,282.195,275.462,278.473z"/>
<path d="M195.161,290.914c-0.239-0.52-0.854-0.748-1.382-0.51c-0.521,0.238-0.845,0.914-0.509,1.379
	c2.213,3.066,2.848,5.164,2.475,8.074l0.483,1.943c0.134,0.51,0.615,0.836,1.12,0.777c0.052-0.004,0.1-0.012,0.146-0.023
	c0.559-0.143,0.893-0.709,0.752-1.266l-0.489-1.934C196.945,296.094,196.24,293.275,195.161,290.914z"/>
<path d="M289.725,213.915c-0.523-0.107-1.165-0.717-1.911-1.422c-0.728-0.693-1.555-1.479-2.625-2.158
	c-7.881-4.984-20.316-5.907-28.932-2.147c-5.523,2.408-8.954,6.434-9.921,11.644c-0.106,0.563,0.264,1.108,0.829,1.211
	c0.023,0.006,0.046,0.001,0.073,0.004c0.138,0.046,0.286,0.069,0.446,0.05c4-0.499,8.256,0.286,12.259,0.047
	c3.562-0.212,7.577-1.829,11.165-2.222c5.844-0.644,11.126-1.4,16.609-3.749c0.497,0.373,1.006,0.66,1.594,0.779
	c0.562,0.115,1.11-0.252,1.224-0.815C290.649,214.575,290.286,214.027,289.725,213.915z M256.104,211.463
	c-0.898,2.522-0.126,3.553,0.589,4.57c0.577,0.815,1.372,1.498,2.293,2.046c-3.39,0.206-5.534,0.514-8.958,0.892
	C251.293,214.679,253.225,212.93,256.104,211.463z M270.044,217.253c1.324-1.299,2.154-3.099,2.346-5.276
	c0.11-1.262-0.18-2.133-0.842-3.3c4.583,0.436,7.777,0.471,11.274,2.683c0.734,0.461,1.308,2.228,1.869,2.756
	C279.612,216.151,275.512,216.667,270.044,217.253z"/>
<path d="M201.944,229.201c0.569,0.006,1.041-0.452,1.057-1.026c0-0.151-0.032-0.292-0.092-0.425
	c-0.012-0.092-0.012-0.186-0.048-0.275c-1.833-4.688-5.738-7.992-10.995-9.305c-7.443-1.854-16.563,0.437-22.695,5.704
	c-2.015,1.728-3.591,3.651-5.115,5.515c-1.619,1.981-3.153,3.849-5.055,5.296c-0.457,0.347-0.547,1-0.199,1.456
	c0.229,0.299,0.589,0.44,0.94,0.404c0.184-0.021,0.359-0.088,0.519-0.205c0.762-0.583,1.449-1.225,2.111-1.892
	c3.244,0.696,6.5,0.717,9.753,0.36c4.263-0.469,8.626-0.555,12.791-1.654C190.53,231.678,196.22,229.112,201.944,229.201z
	 M199.338,227.07c-2.996,0.091-4.865,0.627-7.81,1.258c1.072-1.465,2.271-3.265,0.458-7.122
	C194.916,222.029,197.287,222.922,199.338,227.07z M164.04,232.644c0.543-0.633,1.08-1.273,1.622-1.938
	c1.468-1.794,2.989-3.648,4.857-5.257c1.815-1.556,4.15-1.753,6.386-2.71c-1.223,5.551,1.384,6.957,2.76,7.797
	c0.329,0.2,0.681,0.353,1.034,0.502C174.995,232.475,169.505,233.524,164.04,232.644z"/>
<path d="M264.621,185.458c-1.351,0.642-1.522-1.605-3.066-2.576c-0.862-0.54-3.098,0.1-4.384,0.606
	c-3.734,1.472-7.354,4.68-10.09,7.309c-0.414,0.399-0.428,1.055-0.032,1.468c0.397,0.416,1.057,0.428,1.47,0.032
	c2.603-2.498,4.67-4.272,8.091-5.539c1.423-0.529,2.625-0.017,2.757,2.042c0.074,1.213,0.241,2.166,0.957,2.549
	c0.375,0.199,1.514-0.259,1.904-0.481c4.33-2.445,19.196-9.706,28.797-0.457c0.234,0.225,0.541,0.316,0.837,0.285
	c0.233-0.026,0.458-0.131,0.634-0.312c0.398-0.414,0.387-1.073-0.026-1.471C282.517,179.332,270.271,182.473,264.621,185.458z"/>
<path d="M181.576,201.063c0.256,0.162,0.577,0.208,0.867,0.117c0.524-0.158,0.619-0.369,1.342-2.003
	c0.478-1.073,1.392-2.272,2.339-2.572c0.937-0.043,2.373,0.87,3.596,2.443c1.285,1.65,2.55,2.363,4.361,3.379
	c0.504,0.281,1.137,0.104,1.414-0.396c0.283-0.502,0.107-1.136-0.396-1.417c-1.448-0.813-2.708-2.435-3.931-4.003
	c-1.743-2.239-3.395-4.359-5.602-3.898c-1.125,0.231-4.764,3.757-4.826,3.896c-5.994-2.885-14.965,1.551-21.557,5.671
	c-5.996,3.748-9.117,8.82-8.557,13.913c0.061,0.572,0.576,0.984,1.146,0.922c0.568-0.064,0.981-0.577,0.917-1.147
	c-0.641-5.845,4.484-9.981,7.598-11.926C167.493,199.539,177.044,198.206,181.576,201.063z"/>
<path d="M283.529,361.396c-1.204,1.098-2.635,2.627-4.146,4.248c-3.142,3.375-7.059,7.576-10.418,9.311
	c-4.919,2.543-10.108,1.4-16.147,1.738c-4.314,0.24-8.858,1.924-15.875,3.168c-0.562,0.098-0.94,0.639-0.839,1.203
	c0.101,0.566,0.644,0.938,1.206,0.842c6.889-1.223,12.191-1.518,16.456-1.756c2.173-0.123,4.139-0.232,6-0.438
	c3.524-0.387,6.677-1.113,10.154-2.91c3.681-1.9,5.962-5.354,9.389-9.031c1.48-1.59,4.478-3.801,5.62-4.84
	c0.424-0.385,0.454-1.043,0.068-1.467C284.611,361.039,283.952,361.01,283.529,361.396z"/>
<path d="M470.942,325.818c-0.958-1.211-1.781-2.254-1.992-2.607c-10.444-17.582-18.252-34.416-24.571-52.982
	c-13.176-38.705-18.634-81.555-23.09-122.13c-0.523-4.759-0.783-10.688-1.085-17.552c-1.051-24.111-2.496-57.132-17.913-69.496
	L380.4,43.497c-3.665-2.94-6.13-5.941-8.515-8.845c-4.869-5.93-9.073-11.05-21.143-12.693c-3.695-0.505-7.024-1.56-10.246-2.582
	c-8.987-2.85-16.793-5.317-27.011,5.817c-0.445-1.133-1.247-2.128-2.761-2.69c-2.129-0.785-4.823-0.296-7.592,1.377
	c-4.164,2.526-7.504,7.016-8.422,11.199c-0.845-0.359-1.62-0.786-2.291-1.324c-6.277-5.037-33.496-0.996-38.579,0.216
	c-9.313,2.217-17.209,2.482-24.837,2.737c-8.34,0.282-16.958,0.57-27.17,3.45c-11.291,3.181-15.228,8.866-18.394,13.433
	c-1.938,2.802-3.616,5.222-6.585,6.588c-7.145,3.288-17.344,7.561-23.367,6.738c-10.104-1.375-12.504,0.479-16.865,3.838
	c-1.248,0.966-2.667,2.062-4.51,3.249c-1.115,0.719-3.13,1.48-5.266,2.287c-2.099,0.791-4.224,1.603-6.016,2.527
	c-0.597-4.638-3.401-7.469-6.016-7.826c-7.357-1.001-8.97,4.317-10.39,9.008c-0.518,1.711-1.057,3.471-1.848,4.928
	C51.384,90.76,53.721,160.239,55.278,206.25c0.238,7.026,0.462,13.665,0.456,19.262c-0.017,15.141-2.313,30.139-4.53,44.644
	c-1.77,11.587-3.603,23.565-4.271,35.581c-0.805,14.41,2.901,25.355,6.482,35.943c4.484,13.25,8.715,25.771,2.431,43.041
	c-13.222,12.82-25.226,26.635-30.979,37.725c-0.266,0.508-0.067,1.139,0.441,1.402c0.191,0.096,0.396,0.131,0.592,0.107
	c0.335-0.035,0.643-0.232,0.809-0.551c4.298-8.281,15.75-22.557,30.393-37.064c0.252-0.1,0.457-0.297,0.569-0.562
	c11.72-11.553,25.433-23.205,39.144-32.057c5.561-3.586,11.006-8.041,15.809-11.971l1.928-1.576
	c0.485-0.391,1.051-0.744,1.658-1.076c2.71,0.301,5.103,1.76,5.97,3.648c1.097,2.381-0.017,5.824-1.093,9.154
	c-0.747,2.312-3.52,4.727-3.585,6.711c-0.294,9.1,3.104,18.045,4.392,26.914c1.771,12.205,3.604,24.824,1.162,37.283
	c-1.735,8.875-6.964,17.092-11.574,24.338l-0.912,1.428c-0.306,0.486-0.16,1.125,0.321,1.434c0.208,0.135,0.445,0.18,0.669,0.154
	c0.304-0.031,0.59-0.199,0.764-0.475l0.91-1.43c4.712-7.402,11.083-15.902,12.896-25.162c2.509-12.807-0.381-25.492-2.179-37.871
	c-1.274-8.775-2.593-17.857-2.304-26.771c0.053-1.693,0.714-3.74,1.417-5.91c1.2-3.711,4.504-7.773,3.071-10.893
	c-0.833-1.807-4.638-3.041-6.795-3.891c6.605-2.203,16.957-2.721,27.791-3.254c7.835-0.385,14.152-0.729,21.119-1.818
	c0.131,27.195,4.147,32.035,9.557,43.672c2.814,6.055,6.319,13.596,10.867,26.957c0.159,0.469,0.623,0.75,1.098,0.697
	c0.072-0.008,0.145-0.021,0.221-0.047c0.543-0.186,0.834-0.777,0.646-1.32c-4.58-13.465-8.263-21.383-10.947-27.166
	c-5.299-11.398-7.504-16.158-7.613-43.236c3.074-0.768,5.814-2.654,7.863-4.072c0.252-0.178,0.527-0.367,0.809-0.559
	c-3.037,7.145,0.422,15.469,5.465,27.545c4.127,9.869,9.258,22.158,12.566,38.154c0.926,4.463,2.05,9.004,3.346,13.57
	c0.012,0.113,0.042,0.215,0.092,0.316c8.063,28.252,22.781,57.52,38.701,76.115c0.232,0.275,0.571,0.395,0.903,0.355
	c0.201-0.018,0.397-0.1,0.562-0.24c0.437-0.375,0.488-1.027,0.115-1.467c-11.427-13.35-18.479-29.363-26.596-49.432
	c18.439,9.219,31.218,8.488,45.689,6.895c16.793-1.842,28.525-7.387,39.508-14.172c-2.426,6.689-2.624,11.91-5.024,18.281
	c-5.95,15.775-11.57,30.676-14.492,42.574c-0.138,0.553,0.203,1.119,0.761,1.254c0.122,0.029,0.241,0.041,0.361,0.025
	c0.426-0.045,0.791-0.348,0.896-0.783c2.889-11.779,8.49-26.623,14.419-42.338c17.915-47.51,40.151-106.463,10.993-137.721
	c4.344-0.316,6.351,2.234,8.813,5.373c1.221,1.561,2.482,3.172,4.134,4.492c1.381,1.109,3.688,2.357,6.16,3.537
	c0.016,0.033,0.016,0.068,0.036,0.098c12.411,19.291,6.765,37.436,1.304,54.979c-3.207,10.311-6.525,20.965-5.903,31.461
	c0.034,0.576,0.527,1.012,1.101,0.977c0.02-0.002,0.035-0.004,0.054-0.006c0.547-0.061,0.956-0.539,0.925-1.094
	c-0.604-10.115,2.51-20.123,5.808-30.719c5.367-17.242,12.589-34.414,1.68-53.555c3.771,1.641,5.453,2.26,5.723,2.359
	c4.68,1.734,9.837,2.318,14.827,2.883c5.002,0.568,10.181,1.156,14.896,2.902c2.526,0.934,4.449,2.734,6.484,4.641
	c1.498,1.404,3.044,2.855,4.859,3.926c0.631,0.375,1.375,0.764,2.191,1.156c-12.037,18.383,1.18,28.654,8.48,41.35
	c3.411,5.93,6.937,12.057,8.908,18.279c2.578,8.131,3.966,16.084,5.438,24.514c0.225,1.297,0.454,2.607,0.688,3.922
	c0.1,0.543,0.596,0.91,1.135,0.852c0.025-0.004,0.046-0.004,0.072-0.006c0.562-0.104,0.94-0.643,0.84-1.205
	c-0.235-1.318-0.459-2.625-0.69-3.924c-1.479-8.496-1.628-16.812-4.246-25.072c-2.036-6.434-6.875-12.371-10.341-18.395
	c-7.361-12.795-14.313-24.895-8.394-39.447c4.239,1.859,9.761,3.793,14.114,5.316c1.815,0.633,3.451,1.209,4.744,1.684
	c6.708,2.48,20.625,11.758,30.478,18.941c0.076,0.1,0.172,0.189,0.286,0.26c0.048,0.029,0.1,0.035,0.146,0.057
	c2.786,2.035,5.225,3.895,7.051,5.357c3.421,2.744,7.735,7.301,12.309,12.131c7.406,7.822,15.067,15.912,21.403,19.201
	c0.189,0.098,0.397,0.133,0.593,0.109c0.333-0.035,0.646-0.234,0.81-0.553c0.266-0.512,0.065-1.137-0.443-1.4
	c-6.026-3.131-13.903-11.447-20.852-18.787c-4.624-4.881-8.988-9.49-12.518-12.324c-1.51-1.209-3.774-2.932-6.48-4.922
	c1.705-1.77,5.093-2.518,8.39-3.236c3.403-0.74,6.619-1.443,8.149-3.355c0.709-0.885,0.153-2-0.613-3.543
	c-1.035-2.07-2.595-5.199-1.494-8.316c0.9-2.559,3.471-4.83,7.638-6.744c1.844-0.848,5.482-0.287,9,0.258
	c5.017,0.779,9.759,1.514,11.85-1.094C480.038,338.018,477.278,333.863,470.942,325.818z M304.213,25.658
	c2.213-1.339,4.269-1.768,5.788-1.203c1.657,0.611,1.848,2.046,2.023,4.333c0.138,1.817,0.295,3.873,1.885,5.146
	c0.707,0.571,1.888,0.902,3.252,1.287c1.055,0.297,2.82,0.792,3.102,1.232c0.766,1.185,1.148,2.736,1.548,4.38
	c0.449,1.827,0.915,3.715,1.962,5.339c1.667,2.586,3.223,4.02,4.59,5.284c2.084,1.925,3.884,3.587,5.605,9.018
	c2.459,7.756-2.664,15.107-6.217,17.052c-0.462-0.5-0.917-0.96-1.356-1.396c-2.011-2.009-3.604-3.596-4.087-8.006
	c-0.065-0.592,0.443-2.04,0.893-3.317c0.978-2.788,2.086-5.949,0.236-7.435c-0.818-0.654-3.684-3.52-4.529-4.825
	c-0.301-0.469-0.955-2.668-1.479-4.435c-1.299-4.378-1.955-6.363-2.771-7.017c-3.349-2.686-7.877-3.436-12.253-4.163
	c-2.01-0.333-3.963-0.66-5.71-1.158C297.396,32.099,300.472,27.925,304.213,25.658z M331.853,251.638
	c-0.073,0.018-0.131,0.051-0.195,0.086c-0.929,0.384-1.884,0.644-2.858,0.75c-4.054,0.446-7.795-1.652-10.541-5.906
	c-0.03-0.052-0.08-0.082-0.122-0.123c-0.56-8.847-0.821-17.197,1.364-24.593c0.161-0.548-0.154-1.127-0.703-1.289
	c-0.55-0.162-1.129,0.151-1.292,0.702c-2.564,8.681-1.91,18.393-1.223,28.673c1.24,18.457,2.519,37.544-14.286,53.841
	c-4.2,4.072-9.556,10.105-15.226,16.492c-11.123,12.535-23.729,26.736-30.326,29.088c-19.594,6.994-35.172-3.156-47.68-11.311
	c-2.312-1.506-4.495-2.932-6.58-4.166c-2.252-1.33-4.404-2.588-6.457-3.785c-12.436-7.262-21.42-12.51-29.396-20.797
	c-8.169-8.48-12.157-25.916-16.38-44.371c-1.62-7.088-3.094-11.024-4.514-14.829c-1.28-3.433-2.492-6.675-3.837-12.111
	c-0.138-0.558-0.703-0.896-1.258-0.762c-0.556,0.14-0.898,0.702-0.76,1.258c1.371,5.554,2.663,9.005,3.909,12.341
	c1.398,3.744,2.841,7.614,4.431,14.564c1.156,5.054,2.299,10.024,3.515,14.772c-2.874,1.191-5.366,1.266-7.586,0.209
	c-6.349-3.018-9.303-14.514-11.668-23.752c-1.034-4.021-1.927-7.493-2.972-9.765c-1.344-2.924-3.236-5.27-5.069-7.536
	c-2.687-3.33-5.232-6.478-5.74-11.112c-0.165-1.497,0.542-3.891,1.666-4.62c0.31-0.197,0.821-0.399,1.722,0.132l0.986,0.589
	c3.142,1.879,6.699,4.002,10.647,4.341c0.021,0.008,0.038,0.023,0.062,0.031c0.801,0.212,1.563,0.074,2.209-0.403
	c2.255-1.682,2.588-7.364,2.84-15.842c0.122-4.283,0.245-8.33,0.853-10.326c0.979-3.226,3.124-5.92,5.393-8.773
	c3.21-4.031,6.52-8.197,6.609-14.133c0.06-3.98-1.604-8.397-3.212-12.677c-2.099-5.582-4.269-11.353-2.564-15.961
	c7.322-19.8,47.396-51.817,68.437-50.654c5.762,0.321,10.989,2.53,16.525,4.867c4.108,1.735,8.356,3.529,12.871,4.502
	c3.455,0.747,6.872,1.281,10.178,1.801c12.062,1.893,22.48,3.529,30.344,13.876c2.925,3.851,3.56,8.939,4.23,14.328
	c0.586,4.701,1.19,9.562,3.468,13.592c2.45,4.336,6.134,6.507,9.692,8.604c4.207,2.479,8.182,4.821,9.684,10.669
	c1.086,4.225,1.315,8.904,1.541,13.436c0.424,8.591,0.865,17.477,7.059,24.014c0.233,0.243,0.558,0.349,0.867,0.315
	c0.219-0.025,0.432-0.116,0.603-0.278c0.044-0.039,0.062-0.093,0.097-0.141c0.121-0.102,0.221-0.225,0.287-0.378
	c1.035-2.522,7.074-10.865,11.343-13.277c4.495-2.539,8.208-2.973,10.731-1.261c2.985,2.027,4.246,7.069,3.367,13.497
	c-0.464,3.415-2.014,7.005-3.51,10.478c-0.685,1.578-1.386,3.208-1.971,4.784c-1.15,3.119-0.935,6.465-0.723,9.708
	c0.203,3.198,0.398,6.218-0.624,8.985C338.399,246.653,335.378,250.098,331.853,251.638z M106.421,80.602
	c1.556-5.154,2.784-8.276,8.117-7.548c1.999,0.271,4.112,2.932,4.312,6.946c-0.62,0.444-1.159,0.913-1.564,1.42
	c-1.861,2.32-19.12,32.361-19.292,34.816c-0.069,0.977,0.052,6.575,0.278,14.018c-7.261-2.356-11.587-5.598-12.863-9.652
	c-1.354-4.303,0.63-9.824,5.91-16.406c1.187-1.476,1.55-3.133,1.899-4.735c0.384-1.765,0.72-3.29,2.089-4.44
	c0.657-0.546,1.322-1.076,1.99-1.604c2.561-2.024,5.206-4.119,6.994-7.268C105.253,84.455,105.846,82.496,106.421,80.602z
	 M178.756,326.463c-2.202,1.527-4.942,3.428-7.923,3.938c-1.211,0.205-2.475,0.381-3.757,0.547
	c-2.058-8.322-8.011-18.975-12.386-21.982l-0.604-0.416c-9.315-6.406-18.95-13.031-21.555-24.684
	c-1.276-5.699-1.504-11.572-1.724-17.248c-0.113-2.951-0.233-5.936-0.497-8.922c2.456,9.557,5.558,21.182,12.646,24.557
	c1.674,0.797,3.483,1.084,5.415,0.873c1.15-0.127,2.351-0.441,3.589-0.926c3.18,12.016,6.944,22.391,12.872,28.543
	c5.229,5.43,10.833,9.559,17.477,13.75C181.354,324.66,180.242,325.432,178.756,326.463z M212.694,427.127
	c-2.031-5.221-4.866-8.496-6.49-13.77c11.347,11.5,28.314,14.787,48.689,13.35c1.153-0.084,2.304-0.188,3.452-0.314
	c21.836-2.398,42.16-12.736,53.271-26.863c-2.181,7.104-6.369,14.615-8.875,21.629C281.544,435.891,254.056,448.857,212.694,427.127
	z M314.501,389.229c-4.426,14.434-33.429,34.26-58.488,36.037c-21.551,1.525-41.248-5.785-51.889-18.943
	c-1.279-4.523-2.396-9.012-3.307-13.43c-3.351-16.195-8.525-28.58-12.688-38.537c-5.266-12.611-5.785-20.012-1.646-26.695
	c0.092-0.146,4.314,1.967,8.193,4.23c2.053,1.199,4.2,2.453,6.449,3.783c2.047,1.211,4.214,2.621,6.503,4.115
	c10.81,7.045,23.837,15.539,39.888,13.775c3.094-0.338,6.303-1.059,9.627-2.244c7.098-2.533,19.341-16.328,31.179-29.668
	c5.648-6.355,16.899-16.172,17.568-16.9c-0.222,9.035-0.546,16.008,2.714,24.82c0.168,0.457,0.623,0.723,1.089,0.672
	c0.077-0.01,0.165-0.029,0.245-0.059c0.539-0.199,0.813-0.799,0.615-1.332c-2.55-6.893-2.939-10.023-2.914-17.105
	C326.234,331.748,323.081,361.207,314.501,389.229z M323.261,314.791c-1.46-1.176-2.648-2.688-3.801-4.152
	c-2.727-3.479-5.561-7.051-11.876-6.002c0.026-1.201,0.058-2.41,0.088-3.629l0.008-0.205c0.002-0.043-0.016-0.082-0.02-0.123
	c12.944-15.877,11.817-34.185,10.718-50.545c2.965,3.25,6.723,4.836,10.646,4.405c0.672-0.072,1.337-0.205,1.992-0.391
	c-1.191,22.531,4.73,49.107,15.645,70.162c-2.453-0.418-4.82-0.969-7.095-1.809C335.272,320.912,326.333,317.258,323.261,314.791z"
	/>
<g opacity="0.5">
	<path fill="#FEFBF2" d="M340.509,180.929c-0.222,0.274,3.676-23.364,3.741-23.708c1.915-9.974,1.968-19.531,1.907-25.87
		c-0.038-3.724-4.881-12.856-9.188-23.943c-2.492-6.421-2.74-14.266-4.686-18.851c-0.138-0.325-4.426-9.99-3.659-8.802
		c0.628,0.97,6.12,8.364,6.26,8.688c2.325,5.483,2.816,12.061,5.54,19.193c3.991,10.444,9.715,22.972,9.753,26.576
		c0.062,6.457-1.953,13.571-3.88,23.616C346.243,158.109,342.297,178.698,340.509,180.929z"/>
</g>
<g opacity="0.5">
	<path fill="#FEFBF2" d="M108.391,198.434c-1.11-2.804-1.834-5.915-3.146-8.63c-1.93-4-5.922-10.153-7.187-14.404
		c-0.348-1.169,1.857-9.913,2.063-19.501c0.117-5.643-1.684-11.762-1.816-16.307c-0.01-0.354,0.38-6.34,0.751-6.943
		c0.19-0.311,0.63,6.532,0.638,6.883c0.172,5.714,1.785,11.167,1.971,16.038c0.449,12.022-0.529,20.608-0.266,21.489
		c1.236,4.158,3.929,6.945,5.842,10.902c1.314,2.736,1.964,6.869,3.086,9.716c0.129,0.331,6.164,12.925,5.812,13.078
		C115.772,210.912,108.5,198.716,108.391,198.434z"/>
</g>
</svg>
