<?xml version="1.0" encoding="utf-8"?>
<!-- Generator: Adobe Illustrator 16.2.1, SVG Export Plug-In . SVG Version: 6.00 Build 0)  -->
<!DOCTYPE svg PUBLIC "-//W3C//DTD SVG 1.1//EN" "http://www.w3.org/Graphics/SVG/1.1/DTD/svg11.dtd">
<svg version="1.1" id="Layer_1" xmlns="http://www.w3.org/2000/svg" xmlns:xlink="http://www.w3.org/1999/xlink" x="0px" y="0px"
	 viewBox="-485.5 0 1685.5 1200" enable-background="new -485.5 0 1685.5 1200"
	 xml:space="preserve">
<path fill="#009191" d="M1200,1128c0,0-2.34-227.22-16.26-250.74c-20.7-35.1-68.758-59.16-158.04-96.479
	c-88.98-37.2-117.48-68.643-117.48-135.78c0-40.38,27.181-27.18,39.12-101.04c4.923-30.66,28.923-0.54,33.543-70.44
	c0-27.899-13.08-34.859-13.08-34.859s6.6-41.28,9.24-73.021c3.242-39.6-19.979-141.78-143.521-141.78
	c-123.54,0-146.64,102.24-143.458,141.78c2.578,31.74,9.178,73.021,9.178,73.021s-13.077,6.96-13.077,34.859
	c4.62,69.96,28.62,39.841,33.6,70.44c11.878,73.86,39.058,60.66,39.058,101.04c0,45.66-13.2,74.82-49.62,100.439
	c194.4,97.323,220.5,117.181,220.5,204.181V1128H1200z"/>
<path fill="#94001A" d="M641.262,826.277c-10.008-4.535-19.627-8.369-27.781-11.777c-118.62-49.562-156.6-91.439-156.6-181.02
	c0-53.82,36.24-36.24,52.14-134.761c6.601-40.8,38.58-0.6,44.761-93.899c0-37.2-17.4-46.44-17.4-46.44s8.82-55.02,12.3-97.38
	C553,208.26,522.101,72,357.4,72c-0.027,0-0.053,0.001-0.08,0.001S357.267,72,357.24,72c-164.7,0-195.6,136.26-191.28,189
	c3.48,42.36,12.3,97.38,12.3,97.38s-17.4,9.24-17.4,46.44c6.18,93.3,38.16,53.1,44.76,93.899c15.9,98.521,52.14,80.94,52.14,134.761
	c0,89.58-37.979,131.457-156.6,181.02c-8.156,3.408-17.776,7.243-27.784,11.779C-33.14,871.969-119,916.782-119,964.14
	c0,34.561,0,163.86,0,163.86H0h714.641h119c0,0,0-129.3,0-163.86C833.641,916.781,747.778,871.968,641.262,826.277z"/>
<path fill="#009191" d="M-214.997,1128V949.62c0-87,26.1-106.857,220.5-204.181C-30.917,719.82-44.117,690.66-44.117,645
	c0-40.38,27.18-27.18,39.058-101.04c4.979-30.6,28.979-0.48,33.6-70.44c0-27.899-13.077-34.859-13.077-34.859
	s6.6-41.28,9.178-73.021c3.182-39.54-19.918-141.78-143.458-141.78c-123.542,0-146.763,102.18-143.521,141.78
	c2.641,31.74,9.24,73.021,9.24,73.021s-13.08,6.96-13.08,34.859c4.62,69.9,28.62,39.78,33.543,70.44
	c11.939,73.86,39.12,60.66,39.12,101.04c0,67.138-28.5,98.58-117.48,135.78c-89.282,37.319-137.34,61.38-158.04,96.479
	c-13.92,23.521-16.26,250.74-16.26,250.74H-214.997z"/>
</svg>
