<?xml version="1.0" encoding="utf-8"?>
<!-- Generator: Adobe Illustrator 16.2.1, SVG Export Plug-In . SVG Version: 6.00 Build 0)  -->
<!DOCTYPE svg PUBLIC "-//W3C//DTD SVG 1.1//EN" "http://www.w3.org/Graphics/SVG/1.1/DTD/svg11.dtd">
<svg version="1.1" id="Layer_1" xmlns="http://www.w3.org/2000/svg" xmlns:xlink="http://www.w3.org/1999/xlink" x="0px" y="0px"
	 viewBox="0 0 728.665 270.667" enable-background="new 0 0 728.665 270.667"
	 xml:space="preserve">
<path fill="#8A8C8E" d="M-0.461-43.217"/>
<g>
	<path fill="#F1AC1E" d="M88.059,75.438c2.018-36.508,35.687-64.33,75.208-62.148c17.109,0.947,32.503,7.369,44.305,17.3
		c-12.095-17.581-33.006-28.683-56.527-27.601c-36.402,1.678-65.225,31.871-64.383,67.44c0.096,4.009,0.58,7.909,1.39,11.678
		C87.935,79.907,87.933,77.683,88.059,75.438z"/>
	<path fill="#5EC6C7" d="M95.957,105.169c-0.892,0.318-1.801,0.595-2.696,0.868c-45.129,13.639-66.707-11.685-57.228-20.213
		c12.96-11.671,29.066,2.224,27.638,11.434c-2.005,12.896-25.536,60.488-52.185,83.059c-21.708,18.379,2.245-59.691,43.645-36.059
		c50.616,28.896,3.184,116.846-7.52,123.326c-13.546,8.194-27.672-37.378,33.685-83.786c18.131-13.713,40.46-8.755,56.127,6.139
		c10.86,10.328,22.091,34.201,11.598,46.315c-4.178,4.826-10.962-4.112-11.803-12.252c-0.612-5.922,0.04-12.61,1.09-18.829
		c4.09-24.248-2.73-45.164-18-65.246C107.381,122.921,101.993,123.715,95.957,105.169z"/>
	<g>
		<path fill="#F1AC1E" d="M194.391,157.542c-4.613-3.883-15.537-2.773-21.606-1.404c-2.396,0.54-4.732,1.252-6.989,2.059
			c-4.213,1.502-8.259,3.369-11.78,5.641c-1.752,1.129-5.385,3.316-5.326,5.22c0.052,1.727,3.663,1.304,5.251,1.197
			c0.357-0.022,0.758-0.018,1.104-0.081c10.375-1.884,20.803-3.606,30.683-6.734c2.719-0.863,5.462-1.787,7.759-3.185
			C195.273,159.167,195.249,158.261,194.391,157.542z"/>
		<path fill="#F1AC1E" d="M192.628,174.135c-3.752-3.156-12.635-2.255-17.576-1.142c-1.948,0.438-3.847,1.021-5.679,1.678
			c-3.431,1.22-6.72,2.736-9.582,4.586c-1.425,0.918-4.381,2.696-4.329,4.245c0.04,1.402,2.974,1.057,4.267,0.973
			c0.29-0.02,0.62-0.017,0.901-0.066c8.434-1.534,16.917-2.934,24.951-5.479c2.211-0.704,4.442-1.453,6.309-2.589
			C193.347,175.458,193.325,174.719,192.628,174.135z"/>
		<path fill="#F1AC1E" d="M190.409,191.003c-3.042-2.556-10.247-1.826-14.25-0.925c-1.581,0.357-3.122,0.828-4.61,1.358
			c-2.781,0.994-5.449,2.22-7.773,3.724c-1.154,0.745-3.551,2.185-3.511,3.441c0.035,1.14,2.416,0.86,3.465,0.79
			c0.234-0.016,0.501-0.009,0.727-0.056c6.846-1.241,13.704-2.37,20.243-4.442c1.791-0.566,3.601-1.178,5.113-2.098
			C190.992,192.077,190.977,191.483,190.409,191.003z"/>
	</g>
	<path fill="#58B947" d="M217.946,74.494c3.087,0.361,5.926-0.062,9.957-0.385c42.303-3.391,50.738-29.015,39.622-33.41
		c-15.193-6.017-23.666,10.207-19.076,17.489c6.414,10.186,43.708,43.154,74.437,54.337c25.031,9.106-23.793-49.184-49.994-17.561
		c-32.025,38.659,7.432,94.877,18.25,91.434c18.47-5.888-20.219-49.592-30.989-50.787c-75.253-8.324-58.891,95.955-43.688,72.514
		c15.714-24.229-14.385-32.802-0.31-90.404C219.634,103.474,223.997,86.762,217.946,74.494z"/>
	<g>
		<path fill="#F1AC1E" d="M96.792,104.951c0,0,38.893-12.97,27.051-36.315c0,0-5.282-8.046-11.657-4.801
			c0,0-5.422,2.699-1.909,8.751c3.126,5.38,4.452,8.13,2.691,12.822C111.207,90.101,107.564,98.291,96.792,104.951z"/>
		<path fill="#F1AC1E" d="M216.876,74.598c-1.56,0.615-3.664,1.372-4.601,1.673c-3.144,1.013-6.523,1.632-9.988,1.895
			c-8.631,0.653-17.47-2.426-22.258-10.214c-2.552-4.161-3.615-13.322,1.36-15.484c2.442-1.062,5.631,0.334,7.352,2.417
			c2.228,2.692,2.434,5.926,3.984,8.802c3.137,5.784,9.247,9.314,15.995,10.416C211.164,74.5,214.451,74.491,216.876,74.598z"/>
		<path fill="#F1AC1E" d="M136.484,96.531c-10.198,0-17.541-16.778-19.555-21.939c-0.825-2.115,0.22-4.499,2.335-5.324
			c2.115-0.824,4.499,0.22,5.324,2.335c3.095,7.904,8.827,16.707,11.888,16.707c0.008,0,0.016,0,0.024,0
			c0.603-0.009,1.722-0.737,3.076-2.96c-0.437-1.349-0.511-2.774,0.019-4.229c1.055-2.894,3.997-4.091,6.194-4.237
			c1.383-0.087,2.718,0.518,3.553,1.624c0.835,1.105,1.057,2.557,0.59,3.861c-0.23,0.644-0.547,1.532-0.964,2.551
			c0.251,0.267,0.542,0.562,0.879,0.886c2.955,2.841,4.439,1.963,4.928,1.675c0.607-0.359,1.131-0.886,1.567-1.486
			c-0.495-0.702-0.876-1.388-1.146-2.011c-0.088-0.203-0.159-0.412-0.213-0.626c-0.758-3,0.464-4.872,1.259-5.721
			c1.708-1.824,4.335-2.101,6.225-1.754c1.4,0.258,2.568,1.222,3.085,2.549c0.579,1.484,0.696,3.243,0.436,5.064
			c1.517,0.561,3.66,0.752,6.635-0.078c1.68-0.853,9.458-5.392,7.238-15.26c-0.499-2.215,0.894-4.414,3.108-4.912
			c2.216-0.499,4.415,0.893,4.912,3.108c3.095,13.762-6.551,22.148-12.084,24.66c-0.172,0.078-0.35,0.145-0.531,0.198
			c-5.17,1.532-9.309,1.126-12.481-0.154c-0.939,1.245-2.046,2.333-3.277,3.154c-2.206,1.473-7.976,4.15-14.781-1.945
			c-2.025,2.38-4.681,4.213-8.108,4.263C136.573,96.531,136.528,96.531,136.484,96.531z"/>
	</g>
	<g>
		<path fill="#025F5F" d="M252.149,219.143v48.258h-13.585v-48.258h-10.002v-9.084h33.505v9.084H252.149z"/>
		<path fill="#025F5F" d="M293.154,267.401v-31.255c0-3.5-1.583-6.334-6.667-6.334c-2.083,0-3.749,0.333-5.5,1.251v36.338h-13.001
			v-65.427h13.001v22.004c3.001-1.334,6.167-2.083,9.668-2.083c11.251,0,15.502,6.501,15.502,14.002v31.504H293.154z"/>
		<path fill="#025F5F" d="M325.076,249.482c0.917,6.584,4.25,9.834,10.834,9.834c5.251,0,9.251-1.166,11.67-2.417l2.914,8.086
			c-3.498,1.749-8.5,3.25-16.085,3.25c-13.751,0-21.669-9.086-21.669-23.419c0-14.086,7.334-23.172,20.253-23.172
			c13.003,0,19.586,8.835,19.002,24.004L325.076,249.482z M332.495,229.312c-5.335,0-8.67,4.584-8.252,13.835l15.67-2.333
			C339.913,232.813,337.244,229.312,332.495,229.312z"/>
		<path fill="#025F5F" d="M395.338,267.401l-14.17-28.421h-0.166v28.421h-13.42v-57.342h13.42v25.838h0.166l14.42-25.838h13.834
			l-16.25,26.338l17.336,31.004H395.338z"/>
		<path fill="#025F5F" d="M456.596,267.401L437.51,235.23c-1.75-3-3-6.001-3-6.001h-0.166c0,0,0.332,3.084,0.332,6.25v31.922H423.34
			v-57.342h11.92l17.586,29.421c1.75,2.917,2.918,5.501,2.918,5.501h0.166c0,0-0.336-2.75-0.336-5.751v-29.171h11.42v57.342H456.596
			z"/>
		<path fill="#025F5F" d="M486.436,249.482c0.916,6.584,4.248,9.834,10.834,9.834c5.25,0,9.25-1.166,11.668-2.417l2.916,8.086
			c-3.5,1.749-8.5,3.25-16.084,3.25c-13.754,0-21.672-9.086-21.672-23.419c0-14.086,7.334-23.172,20.254-23.172
			c13.002,0,19.586,8.835,19.002,24.004L486.436,249.482z M493.852,229.312c-5.334,0-8.668,4.584-8.252,13.835l15.67-2.333
			C501.27,232.813,498.604,229.312,493.852,229.312z"/>
		<path fill="#025F5F" d="M535.438,268.068c-9.42,0-13.504-6.084-13.504-13.001v-24.172h-4.916v-8.417h4.916v-9.585l13.004-3.334
			v12.919h6.916v8.417h-6.916v23.171c0,3.418,1.25,5.25,4.166,5.25c1.084,0,1.668-0.167,2.75-0.499v8
			C540.771,267.319,538.438,268.068,535.438,268.068z"/>
		<path fill="#025F5F" d="M596.029,267.401h-12.002l-6.42-24.337c-0.75-3.001-0.916-6.167-0.916-6.167h-0.082
			c0,0-0.168,3.166-1.002,6.167l-6.584,24.337h-11.92l-12.334-44.923h12.918l5.418,25.92c0.75,3.668,0.834,6.501,0.834,6.501h0.168
			c0,0,0.082-2.751,1.084-6.501l6.834-25.92h10.668l6.416,25.92c0.75,3.168,1.084,6.501,1.084,6.501h0.168
			c0,0,0.082-3.333,0.832-6.584l5.752-25.837h11.418L596.029,267.401z"/>
		<path fill="#025F5F" d="M630.434,268.235c-13,0-19.836-9.918-19.836-23.337s6.836-23.254,19.754-23.254
			c13.084,0,19.92,9.835,19.92,23.254S643.436,268.235,630.434,268.235z M630.434,229.729c-5.748,0-6.918,7-6.918,15.002
			c0,8.086,1.252,14.671,6.918,14.671c5.754,0,6.92-6.585,6.92-14.671C637.354,236.729,636.188,229.729,630.434,229.729z"/>
		<path fill="#025F5F" d="M678.525,230.979c-3.168-1.334-6.502-1.25-8.668-0.249v36.671h-13.004v-42.423
			c5.002-2.418,12.002-3.75,24.09-3.167L678.525,230.979z"/>
		<path fill="#025F5F" d="M711.363,267.401l-12.92-22.67h-0.164v22.67h-12.92v-65.427h12.92v40.341h0.164l12.586-19.837h13.004
			l-14.086,20.17l16.002,24.753H711.363z"/>
	</g>
</g>
</svg>
