<?xml version="1.0" encoding="utf-8"?>
<!-- Generator: Adobe Illustrator 16.2.1, SVG Export Plug-In . SVG Version: 6.00 Build 0)  -->
<!DOCTYPE svg PUBLIC "-//W3C//DTD SVG 1.1//EN" "http://www.w3.org/Graphics/SVG/1.1/DTD/svg11.dtd">
<svg version="1.1" id="Layer_1" xmlns="http://www.w3.org/2000/svg" xmlns:xlink="http://www.w3.org/1999/xlink" x="0px" y="0px"
	 viewBox="621 1 565.167 218.167" enable-background="new 621 1 565.167 218.167"
	 xml:space="preserve">
<g>
	<g>
		<path fill="#F1AC1E" d="M688.953,58.614c1.569-28.396,27.756-50.036,58.495-48.338c13.308,0.737,25.281,5.732,34.461,13.456
			c-9.407-13.674-25.671-22.31-43.966-21.468c-28.313,1.306-50.732,24.789-50.076,52.454c0.074,3.119,0.45,6.152,1.081,9.083
			C688.856,62.091,688.855,60.36,688.953,58.614z"/>
		<path fill="#5EC6C7" d="M695.096,81.739c-0.694,0.248-1.401,0.463-2.097,0.675c-35.101,10.608-51.885-9.089-44.513-15.721
			c10.081-9.077,22.607,1.73,21.497,8.893c-1.56,10.031-19.862,47.047-40.589,64.604c-16.885,14.295,1.746-46.428,33.946-28.047
			c39.369,22.475,2.477,90.881-5.849,95.922c-10.535,6.373-21.522-29.072,26.199-65.168c14.103-10.666,31.47-6.811,43.656,4.773
			c8.446,8.034,17.183,26.602,9.021,36.024c-3.249,3.753-8.526-3.198-9.181-9.53c-0.476-4.604,0.032-9.807,0.85-14.645
			c3.181-18.859-2.125-35.129-14.001-50.748C703.981,95.546,699.791,96.165,695.096,81.739z"/>
		<g>
			<path fill="#F1AC1E" d="M771.657,122.475c-3.588-3.021-12.084-2.157-16.806-1.092c-1.863,0.42-3.681,0.974-5.437,1.602
				c-3.276,1.168-6.424,2.62-9.161,4.387c-1.364,0.878-4.188,2.578-4.143,4.061c0.04,1.343,2.849,1.015,4.084,0.932
				c0.277-0.018,0.59-0.016,0.858-0.063c8.069-1.465,16.181-2.805,23.864-5.237c2.115-0.672,4.248-1.391,6.035-2.479
				C772.343,123.738,772.324,123.034,771.657,122.475z"/>
			<path fill="#F1AC1E" d="M770.286,135.381c-2.918-2.455-9.827-1.755-13.67-0.89c-1.515,0.341-2.992,0.794-4.417,1.306
				c-2.668,0.947-5.228,2.128-7.453,3.566c-1.107,0.715-3.407,2.098-3.367,3.303c0.03,1.09,2.312,0.821,3.319,0.756
				c0.226-0.016,0.482-0.014,0.7-0.051c6.56-1.193,13.158-2.283,19.407-4.262c1.719-0.547,3.454-1.131,4.906-2.014
				C770.845,136.408,770.828,135.835,770.286,135.381z"/>
			<path fill="#F1AC1E" d="M768.561,148.5c-2.367-1.988-7.971-1.42-11.084-0.721c-1.229,0.279-2.428,0.646-3.585,1.057
				c-2.163,0.773-4.239,1.727-6.046,2.896c-0.897,0.578-2.763,1.699-2.73,2.676c0.026,0.889,1.879,0.67,2.694,0.615
				c0.181-0.013,0.39-0.008,0.565-0.043c5.324-0.967,10.659-1.844,15.744-3.455c1.394-0.44,2.801-0.916,3.977-1.631
				C769.013,149.335,769.002,148.874,768.561,148.5z"/>
		</g>
		<path fill="#58B947" d="M789.979,57.88c2.401,0.281,4.609-0.048,7.745-0.299c32.902-2.637,39.463-22.567,30.817-25.986
			c-11.818-4.68-18.407,7.939-14.838,13.603c4.989,7.922,33.995,33.565,57.897,42.263c19.469,7.082-18.507-38.255-38.886-13.658
			c-24.908,30.068,5.781,73.795,14.194,71.117c14.366-4.58-15.726-38.573-24.103-39.502c-58.531-6.475-45.806,74.634-33.98,56.401
			c12.222-18.846-11.188-25.514-0.241-70.316C791.291,80.42,794.686,67.422,789.979,57.88z"/>
		<g>
			<path fill="#F1AC1E" d="M695.745,81.57c0,0,30.25-10.088,21.04-28.246c0,0-4.108-6.258-9.066-3.734c0,0-4.218,2.099-1.485,6.807
				c2.432,4.185,3.463,6.323,2.094,9.973C706.957,70.02,704.124,76.39,695.745,81.57z"/>
			<path fill="#F1AC1E" d="M789.146,57.961c-1.214,0.479-2.851,1.067-3.579,1.301c-2.444,0.788-5.073,1.27-7.768,1.474
				c-6.713,0.508-13.588-1.887-17.312-7.944c-1.984-3.236-2.811-10.361,1.058-12.042c1.898-0.826,4.379,0.259,5.719,1.879
				c1.733,2.094,1.894,4.609,3.099,6.846c2.44,4.499,7.192,7.245,12.44,8.101C784.703,57.885,787.261,57.878,789.146,57.961z"/>
			<path fill="#F1AC1E" d="M726.617,75.021c-7.932,0-13.643-13.049-15.209-17.064c-0.643-1.645,0.171-3.5,1.815-4.141
				s3.499,0.171,4.141,1.815c2.407,6.148,6.865,12.995,9.246,12.995c0.006,0,0.013,0,0.02,0c0.469-0.007,1.339-0.573,2.393-2.302
				c-0.34-1.05-0.397-2.158,0.015-3.29c0.82-2.251,3.108-3.182,4.817-3.296c1.075-0.068,2.114,0.403,2.764,1.263
				c0.649,0.859,0.822,1.989,0.458,3.003c-0.179,0.5-0.425,1.191-0.749,1.984c0.195,0.208,0.421,0.437,0.685,0.689
				c2.297,2.209,3.451,1.527,3.832,1.302c0.473-0.279,0.881-0.689,1.219-1.156c-0.385-0.546-0.682-1.08-0.892-1.565
				c-0.068-0.158-0.124-0.32-0.166-0.487c-0.59-2.333,0.361-3.79,0.979-4.45c1.329-1.419,3.371-1.634,4.843-1.365
				c1.09,0.2,1.998,0.95,2.399,1.983c0.451,1.154,0.541,2.522,0.339,3.938c1.18,0.437,2.847,0.585,5.16-0.06
				c1.308-0.663,7.357-4.194,5.631-11.869c-0.389-1.723,0.695-3.434,2.417-3.821c1.724-0.388,3.434,0.695,3.82,2.417
				c2.407,10.704-5.096,17.227-9.398,19.179c-0.135,0.061-0.272,0.113-0.414,0.154c-4.021,1.191-7.239,0.875-9.708-0.12
				c-0.729,0.968-1.591,1.814-2.548,2.453c-1.716,1.146-6.204,3.228-11.497-1.513c-1.575,1.852-3.642,3.276-6.307,3.315
				C726.687,75.021,726.652,75.021,726.617,75.021z"/>
		</g>
		<g>
			<path fill="#025F5F" d="M816.58,170.387v37.535h-10.566v-37.535h-7.779v-7.065h26.06v7.065H816.58z"/>
			<path fill="#025F5F" d="M848.475,207.922v-24.309c0-2.724-1.23-4.927-5.186-4.927c-1.62,0-2.916,0.259-4.278,0.974v28.264
				h-10.112v-50.89h10.112v17.114c2.334-1.037,4.797-1.619,7.52-1.619c8.752,0,12.058,5.057,12.058,10.891v24.504h-10.113V207.922z"
				/>
			<path fill="#025F5F" d="M873.303,193.984c0.714,5.122,3.307,7.648,8.428,7.648c4.084,0,7.195-0.906,9.076-1.881l2.267,6.29
				c-2.721,1.36-6.611,2.528-12.511,2.528c-10.695,0-16.854-7.066-16.854-18.215c0-10.956,5.704-18.023,15.753-18.023
				c10.112,0,15.233,6.872,14.778,18.67L873.303,193.984z M879.073,178.297c-4.149,0-6.743,3.566-6.418,10.76l12.188-1.814
				C884.843,181.02,882.767,178.297,879.073,178.297z"/>
			<path fill="#025F5F" d="M927.951,207.922l-11.021-22.105h-0.129v22.105h-10.438v-44.6h10.438v20.096h0.129l11.217-20.096h10.76
				l-12.639,20.484l13.483,24.115H927.951L927.951,207.922z"/>
			<path fill="#025F5F" d="M975.598,207.922L960.753,182.9c-1.361-2.334-2.333-4.668-2.333-4.668h-0.129
				c0,0,0.258,2.399,0.258,4.861v24.828h-8.816v-44.6h9.271l13.679,22.883c1.361,2.27,2.27,4.279,2.27,4.279h0.129
				c0,0-0.262-2.139-0.262-4.474v-22.688h8.883v44.6H975.598L975.598,207.922z"/>
			<path fill="#025F5F" d="M998.807,193.984c0.713,5.122,3.305,7.648,8.428,7.648c4.084,0,7.195-0.906,9.074-1.881l2.269,6.29
				c-2.723,1.36-6.61,2.528-12.51,2.528c-10.698,0-16.856-7.066-16.856-18.215c0-10.956,5.705-18.023,15.754-18.023
				c10.112,0,15.234,6.872,14.779,18.67L998.807,193.984z M1004.575,178.297c-4.149,0-6.742,3.566-6.418,10.76l12.188-1.814
				C1010.346,181.02,1008.271,178.297,1004.575,178.297z"/>
			<path fill="#025F5F" d="M1036.921,208.441c-7.327,0-10.504-4.732-10.504-10.112v-18.8h-3.823v-6.547h3.823v-7.455l10.114-2.594
				v10.049h5.379v6.547h-5.379v18.021c0,2.658,0.973,4.084,3.24,4.084c0.844,0,1.297-0.129,2.139-0.388v6.223
				C1041.068,207.858,1039.254,208.441,1036.921,208.441z"/>
			<path fill="#025F5F" d="M1084.048,207.922h-9.335l-4.994-18.928c-0.583-2.334-0.712-4.797-0.712-4.797h-0.063
				c0,0-0.131,2.461-0.779,4.797l-5.121,18.928h-9.271l-9.593-34.94h10.047l4.214,20.159c0.584,2.854,0.648,5.057,0.648,5.057h0.132
				c0,0,0.063-2.14,0.844-5.057l5.315-20.159h8.298l4.99,20.159c0.582,2.465,0.843,5.057,0.843,5.057h0.131
				c0,0,0.063-2.592,0.647-5.121l4.475-20.096h8.88L1084.048,207.922z"/>
			<path fill="#025F5F" d="M1110.808,208.57c-10.11,0-15.429-7.715-15.429-18.152c0-10.437,5.318-18.086,15.366-18.086
				c10.177,0,15.493,7.65,15.493,18.086C1126.238,200.856,1120.921,208.57,1110.808,208.57z M1110.808,178.621
				c-4.471,0-5.381,5.444-5.381,11.668c0,6.289,0.975,11.412,5.381,11.412c4.476,0,5.383-5.123,5.383-11.412
				C1116.19,184.065,1115.283,178.621,1110.808,178.621z"/>
			<path fill="#025F5F" d="M1148.213,179.593c-2.464-1.037-5.058-0.974-6.742-0.193v28.522h-10.114v-32.996
				c3.89-1.881,9.335-2.916,18.737-2.463L1148.213,179.593z"/>
			<path fill="#025F5F" d="M1173.753,207.922l-10.048-17.633h-0.129v17.633h-10.049v-50.889h10.049v31.377h0.129l9.788-15.429
				h10.114l-10.955,15.688l12.446,19.252H1173.753z"/>
		</g>
	</g>
	<g enable-background="new    ">
		<path fill="#025F5F" d="M953.95,214.997v1.685h-3.892v-1.049h0.49v-3.011h-0.49v-1.05h3.892v1.686h-1.264v-0.559h-0.873v0.911
			h1.18v0.973h-1.18v0.973h0.873v-0.559H953.95z"/>
		<path fill="#025F5F" d="M958.076,215.633h0.321v1.049h-1.746v-0.911l-0.337-0.329l-0.345,0.329v0.911h-1.762v-1.049h0.337
			l0.98-0.912l-0.927-0.843h-0.329v-1.049h1.7v0.851l0.345,0.313l0.337-0.313v-0.851h1.693v1.049h-0.338l-0.911,0.843
			L958.076,215.633z"/>
		<path fill="#025F5F" d="M960.219,213.273c0.253-0.345,0.612-0.521,1.08-0.521c1.064,0,1.945,0.92,1.945,2.022
			c0,1.064-0.865,1.984-1.877,1.984c-0.329,0-0.682-0.1-0.927-0.269c-0.054-0.03-0.092-0.068-0.222-0.168v0.628h0.413v1.064h-1.953
			v-1.064h0.406v-3.072h-0.406v-1.049h1.54V213.273z M960.181,214.759c0,0.506,0.437,0.928,0.957,0.928s0.957-0.422,0.957-0.92
			c0-0.528-0.421-0.941-0.949-0.941S960.181,214.246,960.181,214.759z"/>
		<path fill="#025F5F" d="M965.148,215.633h0.413v1.049h-1.953v-1.049h0.406v-3.011h-0.406v-1.05h1.54V215.633z"/>
		<path fill="#025F5F" d="M970.033,214.774c0,1.104-0.935,2.022-2.053,2.022c-1.126,0-2.053-0.919-2.053-2.045
			c0-1.119,0.919-2.038,2.045-2.038C969.13,212.714,970.033,213.618,970.033,214.774z M967.077,214.752
			c0,0.513,0.405,0.935,0.903,0.935c0.49,0,0.904-0.422,0.904-0.928c0-0.521-0.398-0.934-0.904-0.934
			C967.482,213.825,967.077,214.246,967.077,214.752z"/>
		<path fill="#025F5F" d="M971.954,213.411c0.253-0.406,0.612-0.613,1.087-0.636v1.164c-0.643,0.031-0.995,0.383-0.995,0.98v0.713
			h0.413v1.049h-1.953v-1.049h0.406v-1.755h-0.406v-1.049h1.448V213.411z"/>
		<path fill="#025F5F" d="M974.939,215.633h0.413v1.049h-1.953v-1.049h0.406v-1.755h-0.406v-1.049h1.54V215.633z M974.939,212.622
			h-1.134v-1.05h1.134V212.622z"/>
		<path fill="#025F5F" d="M977.412,213.327c0.229-0.376,0.582-0.575,1.042-0.575c0.451,0,0.857,0.185,1.118,0.498
			c0.207,0.253,0.268,0.468,0.268,0.95v1.433h0.406v1.049h-1.54v-2.168c0-0.421-0.206-0.643-0.597-0.643
			c-0.253,0-0.49,0.114-0.598,0.291c-0.069,0.106-0.1,0.283-0.1,0.59v0.881h0.413v1.049h-1.953v-1.049h0.406v-1.755h-0.406v-1.049
			h1.54V213.327z"/>
		<path fill="#025F5F" d="M982.043,216.988c0.1,0.199,0.314,0.314,0.598,0.314c0.514,0,0.858-0.353,0.858-0.866v-0.146
			c-0.115,0.138-0.169,0.191-0.237,0.237c-0.191,0.146-0.483,0.23-0.781,0.23c-1.065,0-1.946-0.904-1.946-1.992
			c0-1.095,0.904-2.015,1.984-2.015c0.459,0,0.797,0.146,1.057,0.468v-0.391h1.44v1.049h-0.406v2.413
			c0,0.728-0.138,1.104-0.528,1.448c-0.391,0.353-0.873,0.521-1.463,0.521c-0.621,0-1.118-0.176-1.486-0.528
			c-0.222-0.223-0.321-0.398-0.398-0.743H982.043z M981.691,214.752c0,0.513,0.429,0.935,0.949,0.935c0.514,0,0.95-0.43,0.95-0.928
			c0-0.521-0.421-0.934-0.958-0.934C982.12,213.825,981.691,214.238,981.691,214.752z"/>
		<path fill="#025F5F" d="M991.76,216.682h-1.064l-0.605-2.015l-0.743,2.015h-1.026l-0.781-2.804h-0.375v-1.049h1.808v1.049h-0.321
			l0.321,1.219l0.697-2.268h0.911l0.659,2.268l0.36-1.219h-0.322v-1.049h1.854v1.049h-0.437L991.76,216.682z"/>
		<path fill="#025F5F" d="M994.904,213.342c0.253-0.391,0.604-0.59,1.064-0.59c0.819,0,1.371,0.667,1.371,1.655v1.226h0.406v1.049
			h-1.54v-2.007c0-0.329-0.022-0.452-0.13-0.59c-0.107-0.146-0.276-0.222-0.498-0.222c-0.215,0-0.398,0.084-0.536,0.245
			c-0.107,0.13-0.138,0.253-0.138,0.521v1.004h0.413v1.049h-1.953v-1.049h0.406v-3.011h-0.406v-1.05h1.54V213.342z"/>
		<path fill="#025F5F" d="M1002.21,215.633h0.405v1.049h-1.539v-0.329c-0.253,0.291-0.613,0.444-1.058,0.444
			c-1.064,0-1.953-0.919-1.953-2.015c0-1.126,0.911-2.068,1.999-2.068c0.43,0,0.751,0.153,1.012,0.482v-0.367h1.539v1.049h-0.405
			V215.633z M999.237,214.759c0,0.506,0.414,0.92,0.919,0.92c0.506,0,0.928-0.414,0.928-0.927c0-0.514-0.398-0.92-0.92-0.92
			C999.659,213.832,999.237,214.254,999.237,214.759z"/>
		<path fill="#025F5F" d="M1004.719,215.633h0.559v1.049h-1.692v-2.804h-0.528v-1.049h0.528v-1.257h1.134v1.257h0.536v1.049h-0.536
			V215.633z"/>
		<path fill="#025F5F" d="M1005.942,213.618l-0.184-2.046h1.126l-0.191,2.046H1005.942z"/>
		<path fill="#025F5F" d="M1010.347,213.917h-1.034c-0.023-0.223-0.153-0.33-0.383-0.33c-0.207,0-0.36,0.115-0.36,0.276
			c0,0.13,0.084,0.222,0.268,0.291c0.093,0.038,0.093,0.038,0.743,0.222c0.689,0.191,1.026,0.567,1.026,1.149
			c0,0.728-0.574,1.233-1.394,1.233c-0.422,0-0.689-0.085-0.98-0.322v0.245h-0.781v-1.126h1.095
			c0.046,0.283,0.191,0.406,0.476,0.406c0.237,0,0.391-0.13,0.391-0.321c0-0.192-0.123-0.284-0.536-0.398
			c-0.675-0.185-0.767-0.215-1.004-0.36c-0.321-0.191-0.506-0.536-0.506-0.919c0-0.713,0.575-1.211,1.387-1.211
			c0.391,0,0.613,0.077,0.843,0.299v-0.222h0.751V213.917z"/>
		<path fill="#025F5F" d="M1014.479,213.273c0.253-0.345,0.612-0.521,1.08-0.521c1.064,0,1.945,0.92,1.945,2.022
			c0,1.064-0.865,1.984-1.877,1.984c-0.329,0-0.682-0.1-0.927-0.269c-0.054-0.03-0.092-0.068-0.222-0.168v0.628h0.413v1.064h-1.953
			v-1.064h0.406v-3.072h-0.406v-1.049h1.54V213.273z M1014.441,214.759c0,0.506,0.437,0.928,0.957,0.928s0.957-0.422,0.957-0.92
			c0-0.528-0.421-0.941-0.949-0.941S1014.441,214.246,1014.441,214.759z"/>
		<path fill="#025F5F" d="M1021.99,214.774c0,1.104-0.935,2.022-2.053,2.022c-1.126,0-2.053-0.919-2.053-2.045
			c0-1.119,0.919-2.038,2.045-2.038C1021.087,212.714,1021.99,213.618,1021.99,214.774z M1019.034,214.752
			c0,0.513,0.405,0.935,0.903,0.935c0.49,0,0.904-0.422,0.904-0.928c0-0.521-0.398-0.934-0.904-0.934
			C1019.439,213.825,1019.034,214.246,1019.034,214.752z"/>
		<path fill="#025F5F" d="M1025.335,213.917h-1.034c-0.023-0.223-0.153-0.33-0.383-0.33c-0.207,0-0.36,0.115-0.36,0.276
			c0,0.13,0.084,0.222,0.268,0.291c0.093,0.038,0.093,0.038,0.743,0.222c0.689,0.191,1.026,0.567,1.026,1.149
			c0,0.728-0.574,1.233-1.394,1.233c-0.422,0-0.689-0.085-0.98-0.322v0.245h-0.781v-1.126h1.095
			c0.046,0.283,0.191,0.406,0.476,0.406c0.237,0,0.391-0.13,0.391-0.321c0-0.192-0.123-0.284-0.536-0.398
			c-0.675-0.185-0.767-0.215-1.004-0.36c-0.321-0.191-0.506-0.536-0.506-0.919c0-0.713,0.575-1.211,1.387-1.211
			c0.391,0,0.613,0.077,0.843,0.299v-0.222h0.751V213.917z"/>
		<path fill="#025F5F" d="M1028.979,213.917h-1.034c-0.023-0.223-0.153-0.33-0.383-0.33c-0.207,0-0.36,0.115-0.36,0.276
			c0,0.13,0.084,0.222,0.268,0.291c0.093,0.038,0.093,0.038,0.743,0.222c0.689,0.191,1.026,0.567,1.026,1.149
			c0,0.728-0.574,1.233-1.394,1.233c-0.422,0-0.689-0.085-0.98-0.322v0.245h-0.781v-1.126h1.095
			c0.046,0.283,0.191,0.406,0.476,0.406c0.237,0,0.391-0.13,0.391-0.321c0-0.192-0.123-0.284-0.536-0.398
			c-0.675-0.185-0.767-0.215-1.004-0.36c-0.321-0.191-0.506-0.536-0.506-0.919c0-0.713,0.575-1.211,1.387-1.211
			c0.391,0,0.613,0.077,0.843,0.299v-0.222h0.751V213.917z"/>
		<path fill="#025F5F" d="M1031.244,215.633h0.413v1.049h-1.953v-1.049h0.406v-1.755h-0.406v-1.049h1.54V215.633z M1031.244,212.622
			h-1.134v-1.05h1.134V212.622z"/>
		<path fill="#025F5F" d="M1033.671,213.204c0.237-0.299,0.59-0.452,1.057-0.452c1.042,0,1.899,0.912,1.899,2.015
			c0,1.072-0.857,1.992-1.861,1.992c-0.444,0-0.773-0.153-1.095-0.506v0.429h-1.54v-1.049h0.406v-3.011h-0.406v-1.05h1.54V213.204z
			 M1033.647,214.744c0,0.513,0.414,0.942,0.927,0.942c0.49,0,0.904-0.414,0.904-0.92c0-0.528-0.406-0.941-0.919-0.941
			C1034.054,213.825,1033.647,214.238,1033.647,214.744z"/>
		<path fill="#025F5F" d="M1038.539,215.633h0.413v1.049h-1.953v-1.049h0.406v-3.011h-0.406v-1.05h1.54V215.633z"/>
		<path fill="#025F5F" d="M1043.202,215.533c-0.313,0.781-1.019,1.271-1.822,1.271c-1.149,0-2.038-0.896-2.038-2.046
			c0-1.148,0.881-2.045,1.999-2.045c1.126,0,2.007,0.881,2.007,2.015c0,0.161-0.015,0.269-0.054,0.46h-2.864
			c0.184,0.391,0.528,0.612,0.95,0.612c0.275,0,0.505-0.092,0.658-0.268H1043.202z M1042.307,214.354
			c-0.177-0.406-0.536-0.644-0.966-0.644c-0.413,0-0.773,0.253-0.919,0.644H1042.307z"/>
		<path fill="#025F5F" d="M1047.274,215.633h0.413v1.049h-1.953v-1.049h0.406v-1.755h-0.406v-1.049h1.54V215.633z M1047.274,212.622
			h-1.134v-1.05h1.134V212.622z"/>
		<path fill="#025F5F" d="M1049.747,213.327c0.229-0.376,0.582-0.575,1.042-0.575c0.451,0,0.857,0.185,1.118,0.498
			c0.207,0.253,0.268,0.468,0.268,0.95v1.433h0.406v1.049h-1.54v-2.168c0-0.421-0.206-0.643-0.597-0.643
			c-0.253,0-0.49,0.114-0.598,0.291c-0.069,0.106-0.1,0.283-0.1,0.59v0.881h0.413v1.049h-1.953v-1.049h0.406v-1.755h-0.406v-1.049
			h1.54V213.327z"/>
		<path fill="#025F5F" d="M1056.453,215.633h0.559v1.049h-1.692v-2.804h-0.528v-1.049h0.528v-1.257h1.134v1.257h0.536v1.049h-0.536
			V215.633z"/>
		<path fill="#025F5F" d="M1058.964,213.342c0.253-0.391,0.604-0.59,1.064-0.59c0.819,0,1.371,0.667,1.371,1.655v1.226h0.406v1.049
			h-1.54v-2.007c0-0.329-0.022-0.452-0.13-0.59c-0.107-0.146-0.276-0.222-0.498-0.222c-0.215,0-0.398,0.084-0.536,0.245
			c-0.107,0.13-0.138,0.253-0.138,0.521v1.004h0.413v1.049h-1.953v-1.049h0.406v-3.011h-0.406v-1.05h1.54V213.342z"/>
		<path fill="#025F5F" d="M1065.984,215.533c-0.313,0.781-1.019,1.271-1.822,1.271c-1.149,0-2.038-0.896-2.038-2.046
			c0-1.148,0.881-2.045,1.999-2.045c1.126,0,2.007,0.881,2.007,2.015c0,0.161-0.015,0.269-0.054,0.46h-2.864
			c0.184,0.391,0.528,0.612,0.95,0.612c0.275,0,0.505-0.092,0.658-0.268H1065.984z M1065.089,214.354
			c-0.177-0.406-0.536-0.644-0.966-0.644c-0.413,0-0.773,0.253-0.919,0.644H1065.089z"/>
		<path fill="#025F5F" d="M1072.829,216.682h-1.064l-0.605-2.015l-0.743,2.015h-1.026l-0.781-2.804h-0.375v-1.049h1.808v1.049
			h-0.321l0.321,1.219l0.697-2.268h0.911l0.659,2.268l0.36-1.219h-0.322v-1.049h1.854v1.049h-0.437L1072.829,216.682z"/>
		<path fill="#025F5F" d="M1078.493,214.774c0,1.104-0.935,2.022-2.053,2.022c-1.126,0-2.053-0.919-2.053-2.045
			c0-1.119,0.919-2.038,2.045-2.038C1077.59,212.714,1078.493,213.618,1078.493,214.774z M1075.537,214.752
			c0,0.513,0.405,0.935,0.903,0.935c0.49,0,0.904-0.422,0.904-0.928c0-0.521-0.398-0.934-0.904-0.934
			C1075.942,213.825,1075.537,214.246,1075.537,214.752z"/>
		<path fill="#025F5F" d="M1080.414,213.411c0.253-0.406,0.612-0.613,1.088-0.636v1.164c-0.644,0.031-0.996,0.383-0.996,0.98v0.713
			h0.413v1.049h-1.953v-1.049h0.406v-1.755h-0.406v-1.049h1.448V213.411z"/>
		<path fill="#025F5F" d="M1083.285,215.633h0.413v1.049h-1.953v-1.049h0.406v-3.011h-0.406v-1.05h1.54V215.633z"/>
		<path fill="#025F5F" d="M1088.217,215.633h0.413v1.049h-1.547v-0.413c-0.261,0.337-0.605,0.49-1.065,0.49
			c-1.057,0-1.953-0.935-1.953-2.022c0-1.072,0.881-1.984,1.923-1.984c0.414,0,0.773,0.146,1.096,0.438v-0.567h-0.414v-1.05h1.548
			V215.633z M1085.244,214.759c0,0.506,0.422,0.928,0.927,0.928c0.514,0,0.935-0.43,0.935-0.935c0-0.521-0.406-0.927-0.927-0.927
			C1085.666,213.825,1085.244,214.246,1085.244,214.759z"/>
		<path fill="#025F5F" d="M1095.075,214.774c0,1.104-0.935,2.022-2.053,2.022c-1.126,0-2.053-0.919-2.053-2.045
			c0-1.119,0.919-2.038,2.045-2.038C1094.172,212.714,1095.075,213.618,1095.075,214.774z M1092.119,214.752
			c0,0.513,0.405,0.935,0.903,0.935c0.49,0,0.904-0.422,0.904-0.928c0-0.521-0.398-0.934-0.904-0.934
			C1092.524,213.825,1092.119,214.246,1092.119,214.752z"/>
		<path fill="#025F5F" d="M1097.087,215.633h0.413v1.049h-1.953v-1.049h0.406v-1.755h-0.406v-1.049h0.406
			c0.03-1.004,0.566-1.471,1.624-1.433v0.996c-0.046-0.008-0.084-0.008-0.107-0.008c-0.138,0-0.275,0.076-0.337,0.176
			c-0.031,0.062-0.046,0.123-0.046,0.269h0.49v1.049h-0.49V215.633z"/>
		<path fill="#025F5F" d="M1101.474,215.633h0.559v1.049h-1.692v-2.804h-0.529v-1.049h0.529v-1.257h1.134v1.257h0.536v1.049h-0.536
			V215.633z"/>
		<path fill="#025F5F" d="M1106.259,215.533c-0.313,0.781-1.019,1.271-1.822,1.271c-1.149,0-2.038-0.896-2.038-2.046
			c0-1.148,0.881-2.045,1.999-2.045c1.126,0,2.007,0.881,2.007,2.015c0,0.161-0.015,0.269-0.054,0.46h-2.864
			c0.184,0.391,0.528,0.612,0.95,0.612c0.275,0,0.505-0.092,0.658-0.268H1106.259z M1105.363,214.354
			c-0.177-0.406-0.536-0.644-0.966-0.644c-0.413,0-0.773,0.253-0.919,0.644H1105.363z"/>
		<path fill="#025F5F" d="M1110.93,215.633h0.405v1.049h-1.539v-0.329c-0.253,0.291-0.613,0.444-1.058,0.444
			c-1.064,0-1.953-0.919-1.953-2.015c0-1.126,0.912-2.068,1.999-2.068c0.43,0,0.751,0.153,1.012,0.482v-0.367h1.539v1.049h-0.405
			V215.633z M1107.957,214.759c0,0.506,0.414,0.92,0.919,0.92c0.506,0,0.928-0.414,0.928-0.927c0-0.514-0.398-0.92-0.92-0.92
			C1108.379,213.832,1107.957,214.254,1107.957,214.759z"/>
		<path fill="#025F5F" d="M1115.63,214.208h-1.057c-0.223-0.269-0.444-0.383-0.735-0.383c-0.49,0-0.881,0.413-0.881,0.927
			c0,0.528,0.398,0.935,0.911,0.935c0.291,0,0.528-0.123,0.659-0.353h1.256c-0.261,0.873-1.042,1.463-1.945,1.463
			c-1.119,0-2.03-0.927-2.03-2.053c0-1.104,0.881-2.03,1.938-2.03c0.359,0,0.658,0.131,0.919,0.398v-0.283h0.965V214.208z"/>
		<path fill="#025F5F" d="M1117.657,213.342c0.253-0.391,0.604-0.59,1.064-0.59c0.819,0,1.371,0.667,1.371,1.655v1.226h0.406v1.049
			h-1.54v-2.007c0-0.329-0.022-0.452-0.13-0.59c-0.107-0.146-0.276-0.222-0.498-0.222c-0.215,0-0.398,0.084-0.536,0.245
			c-0.107,0.13-0.138,0.253-0.138,0.521v1.004h0.413v1.049h-1.953v-1.049h0.406v-3.011h-0.406v-1.05h1.54V213.342z"/>
		<path fill="#025F5F" d="M1122.503,215.633h0.413v1.049h-1.953v-1.049h0.406v-1.755h-0.406v-1.049h1.54V215.633z M1122.503,212.622
			h-1.134v-1.05h1.134V212.622z"/>
		<path fill="#025F5F" d="M1124.976,213.327c0.229-0.376,0.582-0.575,1.042-0.575c0.451,0,0.857,0.185,1.118,0.498
			c0.207,0.253,0.268,0.468,0.268,0.95v1.433h0.406v1.049h-1.54v-2.168c0-0.421-0.206-0.643-0.597-0.643
			c-0.253,0-0.49,0.114-0.598,0.291c-0.069,0.106-0.1,0.283-0.1,0.59v0.881h0.413v1.049h-1.953v-1.049h0.406v-1.755h-0.406v-1.049
			h1.54V213.327z"/>
		<path fill="#025F5F" d="M1129.606,216.988c0.1,0.199,0.314,0.314,0.598,0.314c0.514,0,0.858-0.353,0.858-0.866v-0.146
			c-0.115,0.138-0.169,0.191-0.237,0.237c-0.191,0.146-0.483,0.23-0.781,0.23c-1.065,0-1.946-0.904-1.946-1.992
			c0-1.095,0.904-2.015,1.984-2.015c0.459,0,0.797,0.146,1.057,0.468v-0.391h1.44v1.049h-0.406v2.413
			c0,0.728-0.138,1.104-0.528,1.448c-0.391,0.353-0.873,0.521-1.463,0.521c-0.621,0-1.118-0.176-1.486-0.528
			c-0.222-0.223-0.321-0.398-0.398-0.743H1129.606z M1129.255,214.752c0,0.513,0.429,0.935,0.949,0.935
			c0.514,0,0.95-0.43,0.95-0.928c0-0.521-0.422-0.934-0.958-0.934C1129.684,213.825,1129.255,214.238,1129.255,214.752z"/>
		<path fill="#025F5F" d="M1139.063,215.633h0.405v1.049h-1.539v-0.329c-0.253,0.291-0.613,0.444-1.058,0.444
			c-1.064,0-1.953-0.919-1.953-2.015c0-1.126,0.911-2.068,1.999-2.068c0.43,0,0.751,0.153,1.012,0.482v-0.367h1.539v1.049h-0.405
			V215.633z M1136.091,214.759c0,0.506,0.414,0.92,0.919,0.92c0.506,0,0.928-0.414,0.928-0.927c0-0.514-0.398-0.92-0.92-0.92
			C1136.513,213.832,1136.091,214.254,1136.091,214.759z"/>
		<path fill="#025F5F" d="M1141.572,213.327c0.229-0.376,0.582-0.575,1.042-0.575c0.451,0,0.857,0.185,1.118,0.498
			c0.207,0.253,0.268,0.468,0.268,0.95v1.433h0.406v1.049h-1.54v-2.168c0-0.421-0.206-0.643-0.597-0.643
			c-0.253,0-0.49,0.114-0.598,0.291c-0.069,0.106-0.1,0.283-0.1,0.59v0.881h0.413v1.049h-1.953v-1.049h0.406v-1.755h-0.406v-1.049
			h1.54V213.327z"/>
		<path fill="#025F5F" d="M1148.869,215.633h0.413v1.049h-1.547v-0.413c-0.261,0.337-0.605,0.49-1.065,0.49
			c-1.057,0-1.953-0.935-1.953-2.022c0-1.072,0.881-1.984,1.923-1.984c0.414,0,0.773,0.146,1.096,0.438v-0.567h-0.414v-1.05h1.548
			V215.633z M1145.896,214.759c0,0.506,0.422,0.928,0.927,0.928c0.514,0,0.935-0.43,0.935-0.935c0-0.521-0.406-0.927-0.927-0.927
			C1146.318,213.825,1145.896,214.246,1145.896,214.759z"/>
		<path fill="#025F5F" d="M1153.208,215.633h0.413v1.049h-1.953v-1.049h0.406v-3.011h-0.406v-1.05h1.54V215.633z"/>
		<path fill="#025F5F" d="M1157.871,215.533c-0.313,0.781-1.019,1.271-1.822,1.271c-1.149,0-2.038-0.896-2.038-2.046
			c0-1.148,0.881-2.045,1.999-2.045c1.126,0,2.007,0.881,2.007,2.015c0,0.161-0.015,0.269-0.054,0.46h-2.864
			c0.184,0.391,0.528,0.612,0.95,0.612c0.275,0,0.505-0.092,0.658-0.268H1157.871z M1156.976,214.354
			c-0.177-0.406-0.536-0.644-0.966-0.644c-0.413,0-0.773,0.253-0.919,0.644H1156.976z"/>
		<path fill="#025F5F" d="M1162.542,215.633h0.405v1.049h-1.539v-0.329c-0.253,0.291-0.613,0.444-1.058,0.444
			c-1.064,0-1.953-0.919-1.953-2.015c0-1.126,0.911-2.068,1.999-2.068c0.43,0,0.751,0.153,1.012,0.482v-0.367h1.539v1.049h-0.405
			V215.633z M1159.569,214.759c0,0.506,0.414,0.92,0.919,0.92c0.506,0,0.928-0.414,0.928-0.927c0-0.514-0.398-0.92-0.92-0.92
			C1159.991,213.832,1159.569,214.254,1159.569,214.759z"/>
		<path fill="#025F5F" d="M1164.959,213.411c0.253-0.406,0.612-0.613,1.088-0.636v1.164c-0.644,0.031-0.996,0.383-0.996,0.98v0.713
			h0.413v1.049h-1.953v-1.049h0.406v-1.755h-0.406v-1.049h1.448V213.411z"/>
		<path fill="#025F5F" d="M1167.944,213.327c0.229-0.376,0.582-0.575,1.042-0.575c0.451,0,0.857,0.185,1.118,0.498
			c0.207,0.253,0.268,0.468,0.268,0.95v1.433h0.406v1.049h-1.54v-2.168c0-0.421-0.206-0.643-0.597-0.643
			c-0.253,0-0.49,0.114-0.598,0.291c-0.069,0.106-0.1,0.283-0.1,0.59v0.881h0.413v1.049h-1.953v-1.049h0.406v-1.755h-0.406v-1.049
			h1.54V213.327z"/>
		<path fill="#025F5F" d="M1172.775,215.633h0.413v1.049h-1.953v-1.049h0.406v-1.755h-0.406v-1.049h1.54V215.633z M1172.775,212.622
			h-1.134v-1.05h1.134V212.622z"/>
		<path fill="#025F5F" d="M1175.248,213.327c0.229-0.376,0.582-0.575,1.042-0.575c0.451,0,0.857,0.185,1.118,0.498
			c0.207,0.253,0.268,0.468,0.268,0.95v1.433h0.406v1.049h-1.54v-2.168c0-0.421-0.206-0.643-0.597-0.643
			c-0.253,0-0.49,0.114-0.598,0.291c-0.069,0.106-0.1,0.283-0.1,0.59v0.881h0.413v1.049h-1.953v-1.049h0.406v-1.755h-0.406v-1.049
			h1.54V213.327z"/>
		<path fill="#025F5F" d="M1179.879,216.988c0.1,0.199,0.314,0.314,0.598,0.314c0.514,0,0.858-0.353,0.858-0.866v-0.146
			c-0.115,0.138-0.169,0.191-0.237,0.237c-0.191,0.146-0.483,0.23-0.781,0.23c-1.065,0-1.946-0.904-1.946-1.992
			c0-1.095,0.904-2.015,1.984-2.015c0.459,0,0.797,0.146,1.057,0.468v-0.391h1.44v1.049h-0.406v2.413
			c0,0.728-0.138,1.104-0.528,1.448c-0.391,0.353-0.873,0.521-1.463,0.521c-0.621,0-1.118-0.176-1.486-0.528
			c-0.222-0.223-0.321-0.398-0.398-0.743H1179.879z M1179.527,214.752c0,0.513,0.429,0.935,0.949,0.935
			c0.514,0,0.95-0.43,0.95-0.928c0-0.521-0.421-0.934-0.958-0.934C1179.956,213.825,1179.527,214.238,1179.527,214.752z"/>
		<path fill="#025F5F" d="M1184.603,216.682h-1.156v-1.156h1.156V216.682z"/>
	</g>
</g>
</svg>
