<?xml version="1.0" encoding="utf-8"?>
<!-- Generator: Adobe Illustrator 16.2.1, SVG Export Plug-In . SVG Version: 6.00 Build 0)  -->
<!DOCTYPE svg PUBLIC "-//W3C//DTD SVG 1.1//EN" "http://www.w3.org/Graphics/SVG/1.1/DTD/svg11.dtd">
<svg version="1.1" id="Layer_1" xmlns="http://www.w3.org/2000/svg" xmlns:xlink="http://www.w3.org/1999/xlink" x="0px" y="0px"
	 viewBox="0 0 1200 443.5" enable-background="new 0 0 1200 443.5" xml:space="preserve">
<g>
	<path fill="#F1AC1E" d="M143.552,122.717c3.331-60.293,58.934-106.24,124.2-102.635c28.257,1.565,53.679,12.171,73.17,28.57
		C320.948,19.619,286.416,1.283,247.57,3.07c-60.115,2.773-107.717,52.634-106.324,111.374c0.157,6.622,0.955,13.062,2.295,19.285
		C143.346,130.1,143.344,126.424,143.552,122.717z"/>
	<path fill="#5EC6C7" d="M156.595,171.817c-1.474,0.526-2.975,0.982-4.452,1.433c-74.529,22.523-110.166-19.298-94.513-33.38
		c21.404-19.272,48.001,3.674,45.644,18.883c-3.312,21.298-42.172,99.893-86.182,137.171c-35.851,30.353,3.708-98.579,72.077-59.551
		c83.591,47.721,5.259,192.965-12.419,203.668c-22.369,13.531-45.697-61.728,55.627-138.369
		c29.944-22.646,66.819-14.462,92.693,10.135c17.934,17.058,36.484,56.482,19.154,76.488c-6.898,7.969-18.104-6.79-19.494-20.235
		c-1.011-9.775,0.068-20.822,1.805-31.095c6.755-40.043-4.512-74.588-29.728-107.752
		C175.46,201.133,166.563,202.447,156.595,171.817z"/>
	<g>
		<path fill="#F1AC1E" d="M319.154,258.311c-7.618-6.414-25.657-4.58-35.684-2.318c-3.955,0.892-7.815,2.067-11.544,3.401
			c-6.956,2.479-13.64,5.562-19.451,9.314c-2.896,1.864-8.893,5.474-8.797,8.623c0.085,2.852,6.049,2.154,8.671,1.979
			c0.588-0.038,1.253-0.034,1.822-0.134c17.133-3.11,34.356-5.956,50.67-11.119c4.49-1.427,9.02-2.954,12.813-5.264
			C320.611,260.992,320.57,259.497,319.154,258.311z"/>
		<path fill="#F1AC1E" d="M316.243,285.713c-6.195-5.212-20.865-3.726-29.024-1.89c-3.217,0.725-6.354,1.687-9.379,2.773
			c-5.665,2.011-11.101,4.519-15.824,7.571c-2.351,1.519-7.234,4.455-7.149,7.014c0.063,2.314,4.909,1.743,7.047,1.604
			c0.48-0.033,1.023-0.029,1.486-0.108c13.929-2.532,27.938-4.847,41.206-9.049c3.65-1.161,7.334-2.401,10.417-4.276
			C317.431,287.894,317.395,286.678,316.243,285.713z"/>
		<path fill="#F1AC1E" d="M312.581,313.568c-5.026-4.221-16.925-3.015-23.534-1.531c-2.609,0.593-5.155,1.372-7.612,2.245
			c-4.593,1.641-9.001,3.667-12.837,6.148c-1.905,1.228-5.867,3.607-5.797,5.682c0.055,1.888,3.989,1.423,5.72,1.307
			c0.385-0.028,0.828-0.018,1.2-0.092c11.304-2.053,22.632-3.915,33.429-7.336c2.96-0.935,5.947-1.944,8.444-3.463
			C313.541,315.342,313.518,314.362,312.581,313.568z"/>
	</g>
	<path fill="#58B947" d="M358.057,121.158c5.099,0.597,9.786-0.102,16.445-0.635c69.859-5.6,83.79-47.916,65.433-55.176
		c-25.093-9.937-39.083,16.857-31.505,28.883c10.593,16.821,72.18,71.268,122.931,89.736c41.338,15.036-39.296-81.226-82.565-29
		c-52.887,63.843,12.274,156.687,30.138,151c30.503-9.725-33.391-81.9-51.178-83.873c-124.276-13.748-97.258,158.468-72.148,119.755
		c25.95-40.016-23.755-54.174-0.512-149.3C360.843,169.017,368.051,141.418,358.057,121.158z"/>
	<g>
		<path fill="#F1AC1E" d="M157.973,171.458c0,0,64.229-21.419,44.674-59.974c0,0-8.723-13.287-19.25-7.928
			c0,0-8.955,4.456-3.152,14.453c5.164,8.886,7.353,13.425,4.446,21.175C181.779,146.935,175.764,160.46,157.973,171.458z"/>
		<path fill="#F1AC1E" d="M356.288,121.33c-2.577,1.017-6.054,2.266-7.599,2.763c-5.189,1.673-10.771,2.696-16.494,3.129
			c-14.253,1.079-28.851-4.006-36.758-16.867c-4.213-6.87-5.969-21.999,2.246-25.568c4.03-1.753,9.298,0.55,12.144,3.99
			c3.68,4.446,4.021,9.786,6.58,14.536c5.181,9.552,15.271,15.383,26.413,17.2C346.854,121.169,352.286,121.154,356.288,121.33z"/>
		<path fill="#F1AC1E" d="M223.522,157.553c-16.842,0-28.968-27.706-32.293-36.231c-1.365-3.492,0.363-7.431,3.854-8.792
			c3.49-1.361,7.429,0.363,8.792,3.854c5.11,13.054,14.576,27.592,19.632,27.592c0.013,0,0.027,0,0.042,0
			c0.996-0.015,2.844-1.217,5.081-4.888c-0.722-2.229-0.843-4.582,0.032-6.985c1.741-4.779,6.599-6.757,10.228-6.998
			c2.283-0.145,4.488,0.855,5.869,2.682c1.378,1.823,1.745,4.223,0.973,6.376c-0.381,1.062-0.902,2.528-1.591,4.212
			c0.414,0.442,0.894,0.929,1.454,1.464c4.877,4.689,7.328,3.242,8.137,2.764c1.004-0.592,1.87-1.463,2.588-2.454
			c-0.817-1.159-1.448-2.293-1.894-3.323c-0.145-0.335-0.264-0.679-0.353-1.034c-1.253-4.953,0.767-8.047,2.078-9.448
			c2.822-3.013,7.158-3.47,10.283-2.898c2.314,0.425,4.242,2.018,5.094,4.211c0.958,2.45,1.148,5.354,0.72,8.361
			c2.506,0.928,6.045,1.242,10.956-0.128c2.777-1.407,15.621-8.904,11.956-25.2c-0.826-3.659,1.476-7.292,5.132-8.113
			c3.661-0.824,7.291,1.476,8.111,5.132c5.11,22.728-10.82,36.577-19.955,40.723c-0.286,0.129-0.577,0.239-0.879,0.326
			c-8.537,2.529-15.37,1.858-20.612-0.255c-1.548,2.056-3.378,3.852-5.41,5.209c-3.644,2.433-13.173,6.854-24.411-3.213
			c-3.344,3.933-7.733,6.956-13.392,7.039C223.671,157.553,223.597,157.553,223.522,157.553z"/>
	</g>
	<g>
		<path fill="#025F5F" d="M414.538,360.04v79.697h-22.435V360.04h-16.517v-15.001h55.332v15.001H414.538z"/>
		<path fill="#025F5F" d="M482.26,439.737v-51.614c0-5.784-2.612-10.462-11.012-10.462c-3.439,0-6.191,0.55-9.083,2.068v60.012
			h-21.471V331.688h21.471v36.338c4.956-2.202,10.186-3.438,15.967-3.438c18.583,0,25.603,10.738,25.603,23.125v52.028h-21.473
			v-0.004H482.26z"/>
		<path fill="#025F5F" d="M534.976,410.144c1.517,10.875,7.022,16.238,17.896,16.238c8.671,0,15.276-1.924,19.271-3.994
			l4.813,13.355c-5.777,2.888-14.037,5.368-26.564,5.368c-22.708,0-35.785-15.004-35.785-38.676
			c0-23.263,12.111-38.268,33.447-38.268c21.471,0,32.344,14.591,31.378,39.642L534.976,410.144z M547.228,376.835
			c-8.81,0-14.317,7.572-13.628,22.847l25.879-3.852C559.479,382.617,555.07,376.835,547.228,376.835z"/>
		<path fill="#025F5F" d="M651.008,439.737l-23.4-46.935h-0.273v46.935h-22.163v-94.698h22.163v42.67h0.273l23.816-42.67h22.847
			l-26.836,43.493l28.628,51.203h-25.055V439.737z"/>
		<path fill="#025F5F" d="M752.176,439.737l-31.521-53.129c-2.89-4.955-4.953-9.911-4.953-9.911h-0.274
			c0,0,0.548,5.094,0.548,10.321v52.717h-18.719v-94.698h19.685l29.045,48.587c2.89,4.82,4.819,9.086,4.819,9.086h0.274
			c0,0-0.557-4.542-0.557-9.5v-48.173h18.861v94.698h-17.209V439.737z"/>
		<path fill="#025F5F" d="M801.454,410.144c1.515,10.875,7.018,16.238,17.896,16.238c8.671,0,15.276-1.924,19.266-3.994
			l4.818,13.355c-5.782,2.888-14.035,5.368-26.562,5.368c-22.715,0-35.789-15.004-35.789-38.676
			c0-23.263,12.113-38.268,33.449-38.268c21.471,0,32.346,14.591,31.38,39.642L801.454,410.144z M813.701,376.835
			c-8.809,0-14.314,7.572-13.627,22.847l25.879-3.852C825.955,382.617,821.549,376.835,813.701,376.835z"/>
		<path fill="#025F5F" d="M882.381,440.839c-15.558,0-22.303-10.047-22.303-21.47v-39.918h-8.117V365.55h8.117v-15.828l21.475-5.508
			v21.336h11.421v13.901h-11.421v38.264c0,5.644,2.065,8.671,6.879,8.671c1.792,0,2.754-0.273,4.542-0.823v13.213
			C891.186,439.602,887.334,440.839,882.381,440.839z"/>
		<path fill="#025F5F" d="M982.443,439.737h-19.82l-10.604-40.189c-1.238-4.955-1.512-10.186-1.512-10.186h-0.134
			c0,0-0.278,5.226-1.654,10.186l-10.873,40.189h-19.685l-20.369-74.188h21.333l8.947,42.804c1.239,6.06,1.376,10.737,1.376,10.737
			h0.279c0,0,0.135-4.544,1.793-10.737l11.285-42.804h17.618l10.595,42.804c1.236,5.233,1.79,10.737,1.79,10.737h0.278
			c0,0,0.134-5.504,1.374-10.874l9.501-42.669h18.855L982.443,439.737z"/>
		<path fill="#025F5F" d="M1039.262,441.113c-21.466,0-32.76-16.381-32.76-38.542c0-22.16,11.292-38.401,32.627-38.401
			c21.608,0,32.896,16.243,32.896,38.401C1072.024,424.734,1060.734,441.113,1039.262,441.113z M1039.262,377.523
			c-9.492,0-11.425,11.559-11.425,24.774c0,13.353,2.07,24.23,11.425,24.23c9.504,0,11.43-10.878,11.43-24.23
			C1050.689,389.082,1048.764,377.523,1039.262,377.523z"/>
		<path fill="#025F5F" d="M1118.684,379.587c-5.232-2.201-10.74-2.067-14.315-0.409v60.56h-21.475v-70.06
			c8.259-3.994,19.82-6.191,39.783-5.229L1118.684,379.587z"/>
		<path fill="#025F5F" d="M1172.911,439.737l-21.334-37.439h-0.274v37.439h-21.336V331.687h21.336v66.621h0.274l20.782-32.76h21.475
			l-23.26,33.31L1197,439.735h-24.089V439.737z"/>
	</g>
</g>
</svg>
